<?xml version="1.0" standalone="no"?>
<!DOCTYPE svg PUBLIC "-//W3C//DTD SVG 20010904//EN"
 "http://www.w3.org/TR/2001/REC-SVG-20010904/DTD/svg10.dtd">
<svg version="1.0" xmlns="http://www.w3.org/2000/svg"
 width="938.000000pt" height="938.000000pt" viewBox="0 0 938.000000 938.000000"
 preserveAspectRatio="xMidYMid meet">
<metadata>
Created by potrace 1.11, written by Peter Selinger 2001-2013
</metadata>
<g transform="translate(0.000000,938.000000) scale(0.100000,-0.100000)"
fill="#000000" stroke="none">
<path d="M4389 9336 c-2 -2 -49 -7 -104 -11 -55 -3 -111 -8 -125 -10 -14 -2
-47 -6 -75 -10 -63 -7 -244 -34 -270 -39 -11 -2 -65 -14 -120 -26 -55 -12
-111 -23 -125 -26 -68 -13 -300 -82 -441 -130 -740 -254 -1407 -694 -1929
-1274 -41 -46 -80 -88 -85 -94 -6 -6 -38 -45 -71 -86 -441 -549 -743 -1155
-905 -1818 -40 -163 -74 -333 -84 -421 -3 -25 -8 -57 -11 -71 -3 -13 -7 -47
-10 -75 -2 -27 -6 -63 -9 -80 -27 -180 -27 -701 1 -950 15 -141 60 -430 69
-444 1 -3 6 -23 9 -43 3 -21 19 -93 36 -160 176 -711 519 -1371 1001 -1923
117 -134 299 -321 403 -413 33 -28 55 -52 48 -52 -18 0 -194 -86 -295 -145
-51 -29 -112 -64 -137 -77 -28 -16 -52 -39 -62 -60 -17 -32 -17 -39 -3 -86 23
-77 49 -93 145 -88 64 3 89 9 144 37 36 18 66 37 66 42 0 4 4 6 9 2 13 -7 101
36 95 47 -3 4 2 5 10 2 8 -3 29 3 48 12 18 10 38 19 43 19 6 1 9 6 8 11 -1 6
8 10 20 9 12 -1 34 4 49 12 15 7 29 13 30 12 2 0 17 5 33 11 65 25 82 24 122
-7 231 -179 672 -422 1013 -556 143 -57 418 -150 476 -161 10 -2 53 -13 94
-24 86 -23 228 -54 350 -76 84 -16 98 -18 215 -31 33 -4 67 -9 76 -10 9 -2 56
-6 105 -10 49 -4 107 -9 129 -11 60 -7 530 -7 610 0 39 3 102 8 141 11 39 3
79 7 90 9 10 2 53 7 94 11 41 4 84 9 95 12 32 7 57 11 100 17 82 12 110 18
113 25 1 4 17 5 34 3 18 -3 28 -1 25 5 -4 5 7 8 25 5 20 -3 29 -1 24 6 -4 7 1
10 13 7 29 -5 62 6 54 19 -4 7 -1 6 9 -1 8 -7 17 -10 20 -7 3 2 18 7 34 10 16
3 30 9 32 14 2 4 12 5 24 2 14 -3 19 -1 14 6 -4 8 -2 10 8 6 19 -7 153 33 159
49 4 9 6 9 6 0 1 -8 17 -6 56 7 31 11 61 23 68 27 6 4 17 8 22 9 6 0 16 2 23
2 7 1 11 6 8 11 -3 4 6 6 21 3 15 -3 23 -1 20 4 -3 6 2 10 11 11 38 2 147 50
144 64 -3 11 -1 11 9 2 13 -13 42 -6 33 8 -3 5 2 6 10 3 9 -3 16 -1 16 5 0 6
7 8 15 5 10 -4 15 0 16 12 0 11 3 14 5 8 5 -11 150 45 163 63 3 4 15 9 25 11
10 2 25 10 33 18 8 8 23 14 33 14 10 0 22 5 25 10 4 6 22 17 42 25 20 8 42 23
50 33 8 9 11 11 8 4 -6 -12 -3 -12 15 -2 18 10 20 14 9 22 -11 8 -10 8 4 4 24
-8 199 93 193 111 -3 7 1 10 8 7 8 -3 36 9 64 26 37 23 49 36 46 48 -5 13 -4
14 4 4 8 -11 17 -9 51 13 22 15 38 32 34 38 -3 5 -1 7 5 3 6 -3 17 1 25 9 9 8
20 15 25 15 6 0 13 7 16 16 3 8 10 13 14 10 5 -3 27 12 50 33 23 21 42 37 42
34 0 -2 6 2 13 9 8 7 29 24 48 38 19 14 46 37 61 52 16 14 28 24 28 22 0 -3 6
1 14 8 7 7 41 37 74 67 34 30 59 58 56 62 -2 4 1 11 7 15 8 4 9 3 5 -4 -4 -7
-2 -12 4 -12 6 0 13 7 16 15 4 11 16 13 42 9 108 -15 355 -59 482 -84 80 -16
156 -31 170 -34 14 -2 59 -12 100 -21 41 -10 94 -21 118 -26 24 -5 48 -12 54
-15 7 -5 9 -1 5 9 -3 9 0 18 9 21 10 4 12 2 8 -6 -5 -8 -2 -9 9 -5 10 3 17 3
17 -2 0 -5 11 -11 24 -13 24 -5 24 -4 12 26 -7 17 -18 30 -24 29 -6 -2 -9 4
-6 12 4 8 -2 31 -11 51 -13 28 -19 33 -27 23 -7 -10 -8 -8 -3 7 9 32 -41 68
-122 89 -37 9 -78 21 -90 26 -14 5 -25 4 -29 -2 -5 -8 -8 -8 -13 0 -4 6 -20
12 -37 14 -16 2 -34 6 -39 9 -6 3 -24 5 -42 4 -17 0 -29 3 -25 8 3 5 -4 7 -16
4 -12 -3 -22 -2 -24 2 -2 4 -19 10 -39 13 -20 2 -42 8 -48 11 -6 4 -11 2 -11
-4 0 -7 -5 -8 -12 -3 -26 16 -98 30 -98 19 0 -6 -4 -5 -9 2 -5 8 -29 15 -59
15 -42 2 -49 5 -46 20 1 9 10 24 19 33 8 9 13 19 10 24 -3 5 0 12 6 16 8 4 9
3 5 -4 -4 -7 -2 -12 3 -12 6 0 11 4 11 8 0 5 23 32 50 61 28 29 48 57 44 62
-3 5 2 9 10 9 8 0 21 10 27 22 7 13 23 33 37 44 15 14 22 27 17 34 -5 8 -4 11
2 7 13 -8 45 31 37 45 -4 6 -3 8 3 5 5 -3 25 15 45 41 104 140 129 177 150
213 12 21 25 39 30 39 4 0 8 4 8 10 0 8 67 119 88 145 23 30 186 332 187 347
0 4 6 13 13 20 6 6 12 20 12 29 0 9 7 22 15 29 8 7 15 18 15 24 0 7 13 39 29
72 31 65 45 104 37 104 -3 0 -12 -15 -20 -32 -8 -18 -33 -72 -55 -121 -22 -48
-40 -90 -40 -93 0 -4 -3 -10 -8 -13 -11 -8 -47 -84 -45 -93 1 -5 -3 -8 -9 -8
-5 0 -8 -4 -5 -9 4 -5 3 -11 -2 -13 -15 -6 -122 -200 -115 -211 3 -5 1 -7 -5
-4 -8 6 -65 -69 -81 -108 -2 -5 -10 -16 -18 -23 -7 -8 -11 -18 -8 -23 4 -5 2
-9 -3 -9 -4 0 -32 -33 -60 -74 -29 -41 -59 -82 -68 -90 -8 -9 -12 -20 -9 -26
4 -6 1 -9 -6 -8 -6 2 -14 -3 -17 -11 -3 -9 0 -11 9 -6 8 5 11 4 6 -1 -5 -5
-12 -9 -16 -9 -15 0 -42 -35 -35 -46 4 -7 3 -9 -3 -6 -6 4 -23 -10 -39 -31
-15 -20 -34 -41 -41 -45 -7 -4 -13 -12 -13 -17 0 -5 -12 -22 -27 -38 -90 -95
-113 -124 -108 -133 4 -5 3 -8 -2 -7 -5 2 -30 -17 -56 -41 -40 -37 -45 -47
-34 -60 10 -14 10 -14 -4 -4 -12 10 -18 10 -27 1 -6 -6 -15 -8 -19 -4 -4 4 -3
10 3 14 21 15 192 213 270 313 127 163 216 292 319 463 238 395 427 849 530
1274 53 218 54 222 45 222 -4 0 -10 -19 -14 -42 -30 -190 -167 -622 -271 -853
-13 -27 -33 -72 -45 -100 -170 -384 -491 -855 -818 -1200 -72 -76 -78 -80
-119 -80 -24 0 -43 3 -43 7 0 4 -8 7 -17 6 -23 0 -86 9 -144 20 -25 5 -60 8
-77 8 -16 -1 -28 2 -25 7 2 4 -12 8 -31 8 -20 1 -39 2 -43 3 -24 6 -114 19
-148 22 -22 2 -51 6 -65 9 -14 3 -53 7 -88 9 -34 3 -65 7 -70 9 -4 3 -41 8
-83 11 -80 7 -119 13 -125 19 -2 2 16 18 40 35 252 181 493 472 724 873 380
661 605 1218 741 1839 39 180 83 445 96 585 4 38 8 76 10 85 1 8 6 65 11 125
4 61 9 119 9 130 1 11 3 59 3 107 l2 87 74 41 c161 89 315 161 390 185 44 13
81 24 82 22 1 -1 7 -18 13 -37 l10 -35 -5 40 c-4 34 -1 44 19 63 17 16 23 31
21 50 -3 23 -2 22 6 -5 6 -18 13 -33 15 -33 10 0 -7 55 -20 65 -6 6 -17 20
-24 33 -7 13 -26 31 -43 42 -26 15 -36 34 -60 112 -41 128 -109 314 -158 433
-51 123 -202 425 -258 519 -23 37 -42 70 -42 73 0 12 -214 327 -281 414 -120
157 -277 335 -417 474 -72 71 -129 131 -128 133 2 1 20 -13 40 -33 20 -20 42
-33 48 -29 6 4 8 3 5 -3 -8 -13 27 -46 37 -36 4 5 6 3 4 -3 -2 -5 25 -37 59
-71 46 -45 64 -58 73 -49 8 8 10 7 5 -4 -6 -16 90 -127 106 -123 5 2 8 -1 6
-6 -1 -4 25 -39 58 -76 33 -37 68 -77 79 -89 10 -12 32 -40 48 -63 17 -23 36
-40 42 -36 6 3 8 3 4 -2 -11 -12 31 -66 45 -59 7 4 9 4 5 -1 -11 -11 11 -47
24 -39 6 4 8 3 5 -3 -8 -12 29 -73 45 -73 6 0 8 -3 5 -6 -4 -4 6 -23 21 -43
16 -20 39 -53 51 -73 12 -21 27 -38 32 -38 5 0 8 -6 6 -12 -1 -7 4 -12 11 -10
8 1 11 -2 7 -8 -3 -6 6 -29 22 -53 15 -23 34 -54 42 -69 8 -16 18 -28 23 -28
5 0 7 -4 3 -9 -3 -5 0 -16 7 -23 19 -20 166 -306 211 -408 80 -183 87 -200
167 -440 27 -80 49 -139 49 -131 1 17 -124 389 -149 446 -10 22 -39 87 -63
145 -56 129 -158 334 -169 338 -4 2 -8 12 -8 22 0 9 -6 23 -14 29 -8 7 -17 23
-20 36 -4 14 -11 25 -16 25 -6 0 -10 5 -10 10 0 9 -45 88 -102 178 -10 15 -24
40 -33 55 -9 15 -20 25 -24 22 -5 -2 -8 3 -7 13 0 9 -5 16 -12 14 -8 -1 -11 2
-7 9 4 6 -2 19 -14 30 -12 11 -21 24 -21 29 0 5 -6 18 -14 27 -8 10 -37 47
-63 83 -60 81 -72 97 -100 126 -13 13 -23 28 -23 33 0 6 -6 14 -13 18 -7 4
-26 25 -41 45 -16 21 -32 35 -37 32 -5 -3 -8 -1 -7 4 4 14 -82 113 -93 106 -5
-3 -8 0 -7 8 2 7 -3 12 -10 10 -8 -1 -11 2 -8 7 7 11 -73 98 -86 94 -4 -2 -7
1 -5 6 2 7 -98 111 -107 111 -2 0 -36 32 -77 70 -40 39 -79 70 -87 70 -7 0
-11 4 -8 9 3 5 -7 17 -22 26 -15 10 -31 24 -35 32 -4 7 -12 13 -18 13 -5 0
-22 11 -37 25 -15 14 -34 32 -43 40 -9 8 -19 15 -23 15 -4 0 -14 7 -23 15 -8
8 -19 12 -25 9 -7 -4 -8 -2 -4 4 4 7 -11 23 -36 39 -24 15 -47 33 -51 40 -4 7
-15 13 -22 13 -8 0 -15 5 -15 10 0 14 -27 12 -34 -2 -3 -7 -3 -2 0 11 5 20 3
23 -10 18 -10 -4 -15 -3 -12 2 6 9 -66 61 -84 61 -5 0 -10 4 -10 8 0 13 -59
43 -72 36 -6 -4 -8 -3 -5 3 8 12 -73 65 -90 59 -7 -3 -12 0 -10 7 1 7 -6 11
-15 11 -10 -1 -15 2 -12 7 3 5 -2 9 -10 9 -9 0 -16 4 -16 8 0 11 -67 42 -82
38 -7 -1 -9 -1 -5 2 5 2 -4 13 -19 23 -21 13 -31 15 -41 7 -10 -8 -12 -7 -8 3
8 21 -98 72 -114 56 -9 -9 -11 -9 -6 3 3 10 -5 20 -27 29 -18 8 -66 29 -105
48 -40 18 -73 30 -73 28 0 -3 -10 1 -22 9 -13 8 -48 23 -78 34 -30 11 -93 34
-139 51 -96 36 -94 35 -86 19 4 -7 0 -5 -8 4 -8 10 -23 19 -33 21 -10 2 -27 7
-36 11 -9 4 -21 5 -27 2 -5 -3 -11 -1 -13 4 -4 14 -86 33 -100 24 -7 -4 -8 -2
-4 4 4 7 1 12 -6 13 -19 1 -37 5 -88 20 -50 14 -54 15 -90 22 -14 3 -56 13
-95 22 -38 9 -80 15 -92 12 -12 -2 -20 0 -17 4 3 5 -1 9 -8 10 -7 0 -22 2 -33
4 -11 3 -36 7 -55 9 -19 3 -46 7 -60 10 -14 2 -45 7 -70 10 -25 3 -55 8 -68
10 -12 3 -59 8 -103 11 -45 4 -91 9 -103 12 -24 6 -701 15 -707 9z m776 -160
c22 -3 65 -8 95 -11 30 -3 75 -8 100 -11 25 -3 83 -12 130 -19 47 -8 103 -17
124 -21 22 -3 69 -12 105 -20 36 -8 77 -17 91 -20 95 -20 384 -105 490 -144
546 -202 987 -456 1410 -813 115 -98 359 -338 455 -449 39 -45 75 -86 82 -93
6 -7 60 -77 120 -156 321 -424 538 -838 704 -1342 16 -49 29 -93 29 -98 0 -5
-23 -9 -50 -9 -63 0 -132 -23 -283 -94 -136 -64 -167 -74 -167 -55 0 17 -28
263 -34 293 -2 12 -7 41 -11 66 -43 264 -111 484 -211 683 -171 342 -430 521
-764 531 -323 9 -649 -123 -901 -365 -208 -201 -363 -455 -619 -1014 -46 -99
-84 -182 -86 -184 -1 -1 -3 197 -4 440 0 244 -2 462 -4 484 -6 58 -18 200 -18
202 3 15 -44 152 -61 178 -41 63 -68 70 -276 68 -101 -1 -186 -5 -190 -8 -9
-9 -7 -328 2 -420 26 -243 34 -459 52 -1300 l5 -220 -86 -215 c-161 -402 -379
-923 -479 -1145 -13 -27 -52 -115 -88 -195 -144 -323 -235 -514 -410 -860 -82
-162 -153 -299 -157 -305 -4 -5 -49 -91 -100 -190 -51 -99 -113 -210 -136
-247 -44 -68 -112 -148 -127 -148 -8 0 -3 126 8 235 2 22 7 81 10 130 4 50 8
106 10 125 2 19 6 69 10 110 10 118 15 162 20 210 3 25 8 70 10 100 4 47 15
148 30 275 2 17 6 57 10 90 3 33 8 69 10 80 2 11 7 47 10 80 3 33 7 69 10 80
2 11 7 43 10 71 3 28 7 59 9 70 2 10 7 44 11 74 3 30 8 66 10 80 7 42 44 292
50 335 3 22 8 51 10 65 3 14 7 43 11 65 3 22 14 90 24 150 11 61 22 130 25
155 4 25 10 63 15 85 5 22 14 69 19 105 19 116 68 374 111 590 16 80 31 156
34 170 3 14 10 50 16 80 6 30 13 66 16 80 23 128 210 967 235 1058 11 40 22
81 24 90 2 9 11 50 19 90 33 152 38 287 15 370 -32 116 -246 251 -399 252
-180 0 -444 -352 -805 -1070 -123 -246 -153 -302 -278 -529 -75 -136 -148
-286 -252 -516 -7 -16 -59 -140 -115 -275 -189 -458 -294 -695 -333 -758 -46
-74 -132 -148 -152 -132 -14 11 -47 114 -66 205 -16 73 -18 468 -4 695 5 85 9
234 9 330 -1 186 -16 270 -63 347 -41 66 -214 135 -343 136 -67 1 -84 -3 -143
-33 -70 -36 -174 -130 -270 -245 -64 -77 -171 -185 -183 -185 -11 0 -7 59 9
155 26 148 7 228 -65 270 -38 22 -151 58 -221 69 -16 3 -82 16 -146 29 -131
28 -202 28 -248 1 -33 -20 -35 -33 -13 -109 22 -75 20 -778 -3 -890 -2 -11 -7
-56 -10 -100 -12 -152 -28 -304 -42 -400 -3 -22 -6 -53 -8 -70 -3 -36 -15
-140 -20 -175 -2 -14 -7 -50 -10 -80 -3 -30 -8 -66 -10 -80 -2 -14 -7 -56 -10
-95 -4 -38 -8 -77 -11 -85 -5 -20 196 -131 278 -155 111 -31 211 -18 273 36
48 42 86 127 141 309 87 294 284 716 499 1076 84 139 186 286 193 279 3 -3 7
-146 8 -318 5 -442 12 -552 49 -731 32 -152 114 -307 212 -401 185 -175 403
-106 614 195 25 36 56 83 68 105 13 22 33 56 44 75 34 59 191 371 222 440 15
36 36 83 46 105 30 66 110 263 239 585 68 168 133 328 145 355 13 28 37 84 55
125 87 202 238 480 341 629 49 71 163 210 168 205 2 -2 -2 -25 -9 -51 -6 -26
-14 -57 -16 -68 -2 -11 -17 -78 -33 -150 -16 -71 -45 -204 -65 -295 -20 -91
-39 -174 -41 -185 -3 -11 -23 -105 -45 -210 -23 -104 -49 -230 -60 -280 -11
-49 -29 -139 -41 -200 -11 -60 -23 -119 -25 -130 -10 -56 -46 -247 -55 -295
-12 -68 -12 -68 -38 -220 -12 -69 -23 -136 -26 -150 -5 -29 -25 -153 -31 -190
-15 -102 -44 -303 -49 -340 -3 -25 -10 -76 -15 -115 -11 -80 -17 -127 -25
-205 -4 -30 -8 -66 -10 -80 -2 -14 -6 -54 -10 -90 -4 -36 -8 -76 -10 -90 -2
-14 -7 -61 -10 -105 -3 -44 -8 -91 -10 -105 -2 -14 -7 -63 -10 -110 -4 -47 -8
-101 -10 -120 -2 -19 -6 -84 -10 -145 -3 -60 -8 -134 -10 -163 -3 -29 -7 -119
-10 -200 -7 -160 -10 -227 -20 -402 -10 -165 -13 -434 -5 -486 5 -29 3 -44 -4
-45 -6 0 -22 -2 -36 -5 -14 -2 -70 -11 -126 -19 -147 -23 -200 -31 -240 -39
-12 -2 -37 -7 -55 -10 -40 -6 -245 -44 -274 -50 -11 -2 -78 -16 -150 -31 -174
-36 -348 -77 -475 -114 -122 -36 -106 -41 -228 78 -45 44 -86 81 -90 81 -4 1
-23 21 -42 45 -19 25 -39 45 -43 45 -5 0 -5 -5 -1 -12 4 -7 3 -8 -5 -4 -6 4
-9 11 -6 16 3 5 -19 34 -50 65 -30 31 -55 60 -55 65 0 16 -18 11 -29 -7 -6
-10 -11 -13 -11 -7 0 5 5 15 12 22 9 9 5 19 -19 44 -17 18 -41 46 -54 62 -13
16 -32 38 -42 48 -9 10 -17 21 -17 26 -1 4 -10 18 -21 31 -17 21 -22 23 -31
10 -8 -11 -9 -10 -4 4 6 18 -30 77 -63 104 -8 7 -11 13 -6 13 4 0 -2 9 -14 19
-12 11 -23 23 -24 28 -1 4 -6 6 -12 5 -5 -2 -7 0 -3 3 11 11 -11 47 -24 39 -7
-4 -8 -3 -4 4 9 15 -18 55 -29 44 -5 -4 -5 -2 -2 4 7 12 -46 97 -55 88 -3 -3
-5 3 -4 13 0 10 -5 17 -12 15 -8 -1 -11 2 -7 8 10 17 -14 50 -33 44 -12 -4
-14 -3 -4 4 11 7 9 17 -8 48 -12 21 -27 42 -32 45 -5 3 -9 9 -9 13 2 17 0 24
-17 42 -10 10 -19 23 -19 27 -2 20 -26 67 -34 67 -5 0 -8 3 -7 8 3 13 -63 142
-74 142 -5 0 -8 6 -5 14 3 7 -1 23 -9 35 -8 11 -13 21 -9 21 3 0 -3 17 -14 37
-10 21 -19 41 -20 46 0 4 -7 20 -15 35 -8 15 -26 56 -40 92 -14 36 -30 79 -37
95 -7 17 -14 39 -16 50 -2 11 -8 22 -13 23 -6 2 -7 8 -4 14 3 5 -2 16 -12 24
-11 9 -13 13 -6 9 13 -7 17 7 5 19 -4 3 -8 12 -10 19 -11 50 -46 163 -52 167
-3 3 -6 12 -6 20 0 8 -8 47 -18 85 -11 39 -22 85 -24 103 -3 17 -9 32 -13 32
-4 0 -7 6 -6 13 1 15 -24 167 -32 187 -3 8 -4 19 -3 25 1 5 -6 15 -15 22 -16
12 -16 13 -1 13 14 0 15 5 7 25 -5 14 -9 29 -9 33 1 4 0 10 -1 15 -4 12 -7 45
-9 88 -1 27 -5 38 -12 33 -8 -5 -9 -2 -1 11 5 10 7 30 3 44 -4 14 -7 39 -6 54
1 21 -3 26 -15 22 -12 -5 -13 -4 -2 6 16 17 16 63 0 53 -8 -5 -8 -3 -2 7 12
19 11 52 -1 61 -6 5 -5 8 3 8 7 0 10 5 6 11 -8 14 -12 421 -3 477 3 24 2 42
-4 42 -6 0 -6 5 0 13 15 20 16 99 1 108 -10 7 -10 9 2 9 12 0 15 11 15 43 0
23 3 47 8 54 4 6 3 14 -3 18 -7 5 -8 11 -1 19 5 6 12 36 15 66 3 30 8 71 12
90 3 19 7 40 7 45 1 6 -4 9 -11 7 -8 -1 -11 2 -7 8 3 6 11 8 16 5 5 -4 9 1 9
9 0 9 1 19 2 24 1 4 7 34 13 67 7 33 20 94 30 135 9 41 18 82 19 90 1 9 6 21
10 28 4 7 5 19 2 27 -3 8 -2 15 2 15 11 0 34 89 27 101 -4 5 -1 9 6 9 7 0 9
10 7 25 -3 13 -2 23 1 20 5 -3 27 54 37 95 0 3 6 19 13 35 7 17 14 35 15 40 1
6 5 16 10 23 4 7 2 19 -5 28 -9 12 -9 13 2 9 13 -5 31 31 42 82 2 7 6 16 10
19 4 4 7 15 7 25 0 9 5 19 10 21 6 2 11 17 13 35 1 17 5 29 9 27 4 -2 10 6 14
18 4 13 17 46 30 73 12 28 24 57 26 65 2 8 9 21 16 29 7 7 11 20 8 28 -3 8 -2
12 2 9 5 -3 24 27 43 67 19 40 49 98 67 129 19 31 31 62 27 68 -4 6 -2 9 5 8
10 -3 67 86 90 140 5 12 14 22 20 22 5 0 9 3 8 8 -3 8 32 64 47 74 5 4 6 8 2
8 -4 0 -3 6 3 13 42 48 88 122 83 130 -3 6 -2 8 3 5 11 -7 77 77 77 97 0 8 3
13 7 12 13 -4 71 73 64 84 -4 7 -3 9 3 6 6 -4 19 3 29 15 12 14 14 18 4 13 -8
-5 1 7 20 26 19 20 76 80 125 134 50 54 122 130 162 169 39 38 69 74 66 80 -3
5 -2 7 3 4 5 -3 25 7 44 23 29 25 33 31 20 40 -12 9 -11 10 4 5 14 -5 27 2 46
21 14 15 35 33 46 39 10 7 18 19 18 28 -1 9 3 13 9 9 5 -3 15 1 21 9 6 8 19
17 29 21 11 4 15 12 11 18 -4 7 -3 9 4 5 6 -3 22 5 35 18 14 14 28 22 31 19 3
-4 6 -2 6 3 0 5 27 29 60 53 33 24 60 48 60 52 0 5 4 8 8 7 5 -2 20 5 33 15
13 9 45 32 71 51 26 18 44 36 40 40 -4 4 -2 6 5 4 20 -5 143 76 137 91 -3 11
-1 11 10 2 9 -7 17 -8 20 -2 3 5 41 28 84 52 42 23 80 46 83 51 3 5 10 10 15
11 5 1 8 5 7 9 -2 4 5 4 14 1 12 -5 14 -3 8 7 -5 8 -4 11 3 7 14 -9 43 3 36
14 -3 5 3 6 12 2 10 -4 15 -2 11 4 -3 5 0 10 8 10 8 0 51 17 95 39 56 27 79
43 75 53 -4 11 -3 11 9 2 12 -10 21 -9 48 5 18 10 35 18 38 19 3 0 12 5 20 10
8 5 20 10 25 11 6 1 28 10 50 20 22 10 45 18 50 19 6 0 9 7 7 15 -3 12 -1 12
9 3 15 -15 53 2 42 20 -5 9 -3 9 8 1 10 -8 21 -8 42 0 15 7 26 14 23 17 -2 2
12 5 31 7 20 1 41 6 47 11 6 4 32 14 59 21 26 7 47 15 47 19 0 3 14 7 32 8 17
1 34 6 37 10 3 5 12 8 19 9 6 1 21 2 33 3 11 0 18 4 16 9 -3 4 9 7 27 8 18 0
41 4 52 9 10 4 28 9 39 11 60 9 186 40 182 44 -3 3 16 6 41 7 44 3 87 9 87 13
0 1 18 4 40 5 22 2 51 6 64 9 21 5 92 14 166 22 17 1 71 6 120 9 50 4 92 9 94
11 5 5 517 -4 566 -10z m1630 -336 c3 -6 -1 -7 -9 -4 -18 7 -21 14 -7 14 6 0
13 -4 16 -10z m-4131 -198 c3 -5 -1 -9 -9 -9 -8 0 -12 4 -9 9 3 4 7 8 9 8 2 0
6 -4 9 -8z m4606 -82 c0 -5 -2 -10 -4 -10 -3 0 -8 5 -11 10 -3 6 -1 10 4 10 6
0 11 -4 11 -10z m155 -120 c3 -5 1 -10 -4 -10 -6 0 -11 5 -11 10 0 6 2 10 4
10 3 0 8 -4 11 -10z m-5114 -23 c-6 -8 -7 -18 -3 -22 4 -5 1 -5 -6 -1 -10 6
-10 11 -1 22 6 8 14 14 16 14 3 0 0 -6 -6 -13z m5189 -13 c0 -8 -19 -13 -24
-6 -3 5 1 9 9 9 8 0 15 -2 15 -3z m-5352 -109 c-3 -3 -9 2 -12 12 -6 14 -5 15
5 6 7 -7 10 -15 7 -18z m-138 -89 c0 -3 -4 -8 -10 -11 -5 -3 -10 -1 -10 4 0 6
5 11 10 11 6 0 10 -2 10 -4z m5760 -66 c0 -5 -2 -10 -4 -10 -3 0 -8 5 -11 10
-3 6 -1 10 4 10 6 0 11 -4 11 -10z m220 -160 c0 -5 -2 -10 -4 -10 -3 0 -8 5
-11 10 -3 6 -1 10 4 10 6 0 11 -4 11 -10z m-6360 -134 c0 -3 -4 -8 -10 -11 -5
-3 -10 -1 -10 4 0 6 5 11 10 11 6 0 10 -2 10 -4z m-40 -46 c0 -5 -2 -10 -4
-10 -3 0 -8 5 -11 10 -3 6 -1 10 4 10 6 0 11 -4 11 -10z m-365 -440 c3 -5 1
-10 -4 -10 -6 0 -11 5 -11 10 0 6 2 10 4 10 3 0 8 -4 11 -10z m-35 -40 c0 -5
-2 -10 -4 -10 -3 0 -8 5 -11 10 -3 6 -1 10 4 10 6 0 11 -4 11 -10z m6551 -250
c35 -12 83 -33 106 -46 97 -56 220 -199 285 -329 74 -148 132 -365 153 -570 3
-33 8 -70 11 -83 2 -12 7 -108 10 -212 l5 -190 -47 -32 c-171 -119 -422 -301
-535 -389 -829 -643 -1353 -1278 -1627 -1970 -214 -539 -259 -1169 -106 -1471
13 -26 24 -49 24 -52 0 -3 -57 -2 -127 1 -283 13 -995 7 -1318 -12 -83 -4
-237 -16 -292 -21 -29 -3 -53 -3 -53 0 0 3 31 52 68 108 299 452 564 1004 847
1758 60 160 216 613 230 670 7 25 94 303 99 314 7 17 -7 -708 -19 -949 -3 -55
-7 -156 -10 -225 -3 -69 -7 -161 -10 -205 -3 -44 -7 -120 -10 -170 -3 -49 -7
-117 -10 -150 -2 -33 -7 -94 -10 -135 -13 -181 -16 -227 -20 -265 -14 -136
-20 -233 -20 -325 0 -92 3 -109 23 -143 71 -113 286 -131 381 -33 50 52 62
117 56 311 -6 181 -7 350 -1 380 2 11 7 61 11 110 4 50 8 97 10 105 1 8 6 47
9 85 4 39 9 86 11 105 2 19 7 71 10 115 3 44 8 96 10 115 2 19 6 76 10 125 3
50 8 101 10 115 2 14 7 57 10 95 3 39 8 86 10 105 2 19 7 58 10 85 15 129 41
294 91 575 70 392 163 804 248 1085 256 856 652 1455 1055 1597 141 49 297 56
412 18z m-6871 -270 c0 -5 -5 -10 -11 -10 -5 0 -7 5 -4 10 3 6 8 10 11 10 2 0
4 -4 4 -10z m-264 -576 c1 -9 0 -13 -4 -10 -3 4 -7 14 -8 22 -1 9 0 13 4 10 3
-4 7 -14 8 -22z m-42 -94 c-6 -6 -10 -3 -10 10 0 13 4 16 10 10 7 -7 7 -13 0
-20z m46 16 c0 -3 -4 -8 -10 -11 -5 -3 -10 -1 -10 4 0 6 5 11 10 11 6 0 10 -2
10 -4z m-105 -146 c3 -5 1 -10 -4 -10 -6 0 -11 5 -11 10 0 6 2 10 4 10 3 0 8
-4 11 -10z m20 -68 c-3 -3 -11 0 -18 7 -9 10 -8 11 6 5 10 -3 15 -9 12 -12z
m-100 -292 c3 -5 1 -10 -4 -10 -6 0 -11 5 -11 10 0 6 2 10 4 10 3 0 8 -4 11
-10z m-40 -169 c3 -5 2 -12 -3 -15 -5 -3 -9 1 -9 9 0 17 3 19 12 6z m7914
-246 c-63 -742 -217 -1320 -509 -1910 -275 -557 -709 -1149 -1001 -1365 -173
-128 -381 -201 -446 -155 -24 17 -49 85 -58 160 -4 28 -8 59 -10 71 -9 59 -19
233 -19 334 -1 524 134 913 526 1520 45 70 227 312 248 330 3 3 49 55 101 115
204 233 522 526 812 747 126 96 359 260 362 256 2 -2 -1 -48 -6 -103z m-7935
-3 c3 -5 -1 -9 -9 -9 -8 0 -12 4 -9 9 3 4 7 8 9 8 2 0 6 -4 9 -8z m6 -36 c0
-3 -4 -8 -10 -11 -5 -3 -10 -1 -10 4 0 6 5 11 10 11 6 0 10 -2 10 -4z m-20
-306 c0 -5 -5 -10 -11 -10 -5 0 -7 5 -4 10 3 6 8 10 11 10 2 0 4 -4 4 -10z
m-5 -40 c3 -5 1 -10 -4 -10 -6 0 -11 5 -11 10 0 6 2 10 4 10 3 0 8 -4 11 -10z
m5 -40 c0 -5 -2 -10 -4 -10 -3 0 -8 5 -11 10 -3 6 -1 10 4 10 6 0 11 -4 11
-10z m0 -160 c0 -5 -5 -10 -11 -10 -5 0 -7 5 -4 10 3 6 8 10 11 10 2 0 4 -4 4
-10z m-5 -40 c3 -5 1 -10 -4 -10 -6 0 -11 5 -11 10 0 6 2 10 4 10 3 0 8 -4 11
-10z m5 -80 c0 -5 -2 -10 -4 -10 -3 0 -8 5 -11 10 -3 6 -1 10 4 10 6 0 11 -4
11 -10z m0 -120 c0 -5 -2 -10 -4 -10 -3 0 -8 5 -11 10 -3 6 -1 10 4 10 6 0 11
-4 11 -10z m0 -40 c0 -5 -2 -10 -4 -10 -3 0 -8 5 -11 10 -3 6 -1 10 4 10 6 0
11 -4 11 -10z m40 -280 c0 -5 -5 -10 -11 -10 -5 0 -7 5 -4 10 3 6 8 10 11 10
2 0 4 -4 4 -10z m0 -40 c0 -5 -5 -10 -11 -10 -5 0 -7 5 -4 10 3 6 8 10 11 10
2 0 4 -4 4 -10z m14 -198 c3 -5 -1 -9 -9 -9 -8 0 -12 4 -9 9 3 4 7 8 9 8 2 0
6 -4 9 -8z m141 -482 c3 -5 1 -10 -4 -10 -6 0 -11 5 -11 10 0 6 2 10 4 10 3 0
8 -4 11 -10z m0 -40 c3 -5 1 -10 -4 -10 -6 0 -11 5 -11 10 0 6 2 10 4 10 3 0
8 -4 11 -10z m20 -60 c3 -5 1 -10 -4 -10 -6 0 -11 5 -11 10 0 6 2 10 4 10 3 0
8 -4 11 -10z m60 -180 c3 -5 1 -10 -4 -10 -6 0 -11 5 -11 10 0 6 2 10 4 10 3
0 8 -4 11 -10z m65 -100 c0 -5 -4 -10 -10 -10 -5 0 -10 5 -10 10 0 6 5 10 10
10 6 0 10 -4 10 -10z m15 -100 c3 -5 1 -10 -4 -10 -6 0 -11 5 -11 10 0 6 2 10
4 10 3 0 8 -4 11 -10z m45 0 c0 -5 -2 -10 -4 -10 -3 0 -8 5 -11 10 -3 6 -1 10
4 10 6 0 11 -4 11 -10z m0 -40 c0 -5 -5 -10 -11 -10 -5 0 -7 5 -4 10 3 6 8 10
11 10 2 0 4 -4 4 -10z m35 -120 c3 -5 1 -10 -4 -10 -6 0 -11 5 -11 10 0 6 2
10 4 10 3 0 8 -4 11 -10z m102 -175 c0 -8 -4 -12 -9 -9 -5 3 -6 10 -3 15 9 13
12 11 12 -6z m20 -60 c0 -8 -4 -12 -9 -9 -5 3 -6 10 -3 15 9 13 12 11 12 -6z
m120 -194 c0 -11 -5 -18 -9 -15 -4 3 -5 11 -1 19 7 21 12 19 10 -4z m83 -131
c0 -5 -2 -10 -4 -10 -3 0 -8 5 -11 10 -3 6 -1 10 4 10 6 0 11 -4 11 -10z m35
-40 c3 -5 1 -10 -4 -10 -6 0 -11 5 -11 10 0 6 2 10 4 10 3 0 8 -4 11 -10z
m186 -217 c13 -16 12 -17 -3 -4 -10 7 -18 15 -18 17 0 8 8 3 21 -13z m4 -43
c-3 -5 -12 -10 -18 -10 -7 0 -6 4 3 10 19 12 23 12 15 0z m50 -60 c3 -5 1 -10
-4 -10 -6 0 -11 5 -11 10 0 6 2 10 4 10 3 0 8 -4 11 -10z m4970 -344 c44 -3
122 -8 174 -11 193 -12 354 -24 416 -30 22 -2 74 -7 115 -11 41 -3 84 -8 94
-10 11 -2 49 -6 85 -9 36 -3 77 -7 91 -9 14 -2 45 -7 70 -10 25 -3 65 -8 90
-11 44 -5 162 -21 229 -31 19 -2 36 -6 38 -8 8 -8 -303 -256 -320 -256 -4 0
-7 8 -7 18 0 33 -53 79 -112 97 -31 10 -64 15 -73 11 -9 -3 -13 -2 -10 4 4 6
-6 10 -22 11 -15 0 -36 2 -45 4 -43 8 -137 22 -208 30 -25 3 -58 7 -75 9 -16
3 -53 7 -81 11 -29 3 -60 7 -70 9 -11 2 -53 7 -94 11 -41 3 -86 8 -100 10 -14
2 -61 7 -105 10 -44 4 -93 9 -110 10 -16 2 -77 6 -135 10 -58 4 -123 9 -145
10 -22 2 -105 6 -185 10 -80 4 -170 9 -200 11 -78 5 -726 5 -780 0 -25 -3 -90
-7 -145 -11 -120 -7 -185 -13 -234 -19 -20 -3 -67 -8 -106 -12 -92 -8 -256
-40 -299 -58 -37 -15 -52 -36 -57 -76 -6 -54 28 -104 79 -117 25 -6 206 2 272
12 37 5 120 14 205 20 318 24 1543 24 1666 0 10 -2 65 -6 121 -10 57 -3 119
-8 138 -10 19 -2 63 -7 98 -10 106 -9 186 -16 217 -20 17 -1 59 -6 95 -10 36
-4 76 -8 90 -10 14 -2 49 -7 79 -10 30 -4 65 -11 78 -16 14 -5 52 -9 85 -9 53
0 59 -2 48 -15 -7 -8 -16 -15 -20 -15 -4 0 -40 -22 -81 -48 -170 -112 -426
-248 -634 -336 -60 -26 -119 -52 -130 -57 -47 -22 -253 -91 -396 -132 -292
-86 -561 -137 -849 -162 -36 -3 -89 -8 -119 -11 -78 -7 -413 -7 -506 0 -152
13 -190 16 -230 21 -22 3 -53 7 -70 9 -52 6 -129 17 -152 22 -36 7 -76 14
-108 19 -16 3 -41 8 -55 11 -14 3 -35 6 -47 7 -13 1 -23 4 -23 7 0 6 -24 10
-72 13 -14 1 -24 6 -21 11 3 5 -8 7 -25 4 -19 -3 -29 0 -25 5 4 6 -3 8 -15 5
-12 -4 -20 -2 -16 3 3 5 -3 10 -13 10 -45 3 -60 7 -83 19 -14 7 -27 13 -30 13
-3 0 -9 1 -15 3 -61 19 -114 31 -119 27 -3 -4 -6 -1 -6 5 0 7 -6 12 -14 12
-13 0 -31 6 -168 59 -31 12 -65 23 -76 24 -11 0 -18 5 -16 9 3 4 0 9 -5 9 -22
3 -22 3 -180 76 -51 23 -100 43 -107 43 -8 0 -14 4 -14 9 0 8 -53 34 -65 32
-3 -1 -15 8 -27 19 -12 11 -30 20 -40 20 -10 0 -18 5 -18 10 0 6 -6 10 -14 10
-8 0 -16 3 -18 8 -6 14 -105 62 -113 54 -5 -4 -5 -1 -1 6 6 11 -5 17 -26 13
-5 0 -8 4 -8 10 0 6 -7 8 -16 5 -8 -3 -12 -2 -9 4 5 9 -96 80 -114 80 -5 0
-11 4 -13 8 -1 5 -32 28 -68 52 -36 24 -67 47 -68 52 -2 4 -7 6 -12 3 -4 -3
-10 2 -14 10 -6 17 1 22 44 30 18 3 38 9 44 12 5 4 24 7 40 9 47 3 120 25 128
38 6 8 8 8 8 -1 0 -6 9 -9 20 -6 11 3 17 10 13 17 -4 7 -1 6 9 -1 8 -7 17 -10
20 -7 3 2 18 7 34 10 16 3 32 11 36 17 6 9 8 9 8 1 0 -9 11 -9 38 -3 20 6 51
12 67 15 17 3 37 8 45 11 21 8 29 10 73 11 21 1 36 5 34 10 -3 4 9 7 26 7 29
1 51 4 127 19 14 2 57 10 97 16 85 14 108 18 108 20 0 1 16 3 36 5 20 1 49 5
65 9 16 3 52 8 79 12 28 3 61 8 75 11 43 9 83 3 114 -16 29 -18 50 -24 119
-35 47 -8 123 19 183 64 32 24 69 44 83 46 14 1 26 3 26 3 0 1 25 4 55 6 97 7
184 15 220 20 19 3 67 7 105 10 39 3 93 7 120 9 125 11 270 20 505 31 74 4
137 8 139 10 5 6 1094 -2 1186 -9z m-4485 -130 c0 -3 -4 -8 -10 -11 -5 -3 -10
-1 -10 4 0 6 5 11 10 11 6 0 10 -2 10 -4z m6915 -6 c3 -5 1 -10 -4 -10 -6 0
-11 5 -11 10 0 6 2 10 4 10 3 0 8 -4 11 -10z m-966 -27 c-23 -30 -37 -43 -45
-43 -4 0 5 14 21 30 31 33 46 40 24 13z m1011 -47 c0 -3 -4 -8 -10 -11 -5 -3
-10 -1 -10 4 0 6 5 11 10 11 6 0 10 -2 10 -4z m-1106 -44 c3 -5 -1 -9 -9 -9
-8 0 -12 4 -9 9 3 4 7 8 9 8 2 0 6 -4 9 -8z m1163 -27 c0 -8 -4 -12 -9 -9 -5
3 -6 10 -3 15 9 13 12 11 12 -6z m-1477 -115 c0 -5 -2 -10 -4 -10 -3 0 -8 5
-11 10 -3 6 -1 10 4 10 6 0 11 -4 11 -10z m-60 -180 c0 -5 -2 -10 -4 -10 -3 0
-8 5 -11 10 -3 6 -1 10 4 10 6 0 11 -4 11 -10z m-5830 -35 c-7 -8 -17 -15 -23
-15 -6 0 -2 7 9 15 25 19 30 19 14 0z m-130 -65 c0 -5 -2 -10 -4 -10 -3 0 -8
5 -11 10 -3 6 -1 10 4 10 6 0 11 -4 11 -10z m-45 -20 c3 -5 1 -10 -4 -10 -6 0
-11 5 -11 10 0 6 2 10 4 10 3 0 8 -4 11 -10z"/>
<path d="M9203 5922 c2 -12 6 -24 10 -28 3 -4 4 4 2 16 -6 30 -16 40 -12 12z"/>
<path d="M9237 5779 c4 -13 8 -18 11 -10 2 7 -1 18 -6 23 -8 8 -9 4 -5 -13z"/>
<path d="M9254 5716 c4 -22 9 -42 12 -45 3 -3 3 12 0 33 -4 22 -9 42 -12 45
-3 3 -3 -12 0 -33z"/>
<path d="M9185 5650 c4 -24 8 -47 10 -50 2 -3 6 -23 10 -45 3 -22 10 -58 15
-80 l9 -40 -4 45 c-5 48 -12 90 -21 130 -3 14 -8 36 -11 50 -8 44 -15 36 -8
-10z"/>
<path d="M9271 5635 c1 -19 18 -51 18 -35 0 8 -4 22 -9 30 -5 8 -9 11 -9 5z"/>
<path d="M9291 5544 c0 -11 3 -14 6 -6 3 7 2 16 -1 19 -3 4 -6 -2 -5 -13z"/>
<path d="M9301 5484 c0 -11 3 -14 6 -6 3 7 2 16 -1 19 -3 4 -6 -2 -5 -13z"/>
<path d="M9311 5424 c0 -11 3 -14 6 -6 3 7 2 16 -1 19 -3 4 -6 -2 -5 -13z"/>
<path d="M9232 5405 c0 -16 2 -22 5 -12 2 9 2 23 0 30 -3 6 -5 -1 -5 -18z"/>
<path d="M9321 5364 c0 -11 3 -14 6 -6 3 7 2 16 -1 19 -3 4 -6 -2 -5 -13z"/>
<path d="M9242 5345 c0 -16 2 -22 5 -12 2 9 2 23 0 30 -3 6 -5 -1 -5 -18z"/>
<path d="M9250 5267 c4 -41 5 -41 8 -8 2 18 0 37 -5 42 -5 5 -6 -11 -3 -34z"/>
<path d="M9331 5294 c0 -11 3 -14 6 -6 3 7 2 16 -1 19 -3 4 -6 -2 -5 -13z"/>
<path d="M9330 5260 c0 -5 5 -10 11 -10 5 0 7 5 4 10 -3 6 -8 10 -11 10 -2 0
-4 -4 -4 -10z"/>
<path d="M9262 5185 c0 -16 2 -22 5 -12 2 9 2 23 0 30 -3 6 -5 -1 -5 -18z"/>
<path d="M9271 5054 c0 -11 3 -14 6 -6 3 7 2 16 -1 19 -3 4 -6 -2 -5 -13z"/>
<path d="M9271 4274 c0 -11 3 -14 6 -6 3 7 2 16 -1 19 -3 4 -6 -2 -5 -13z"/>
<path d="M9261 4234 c0 -11 3 -14 6 -6 3 7 2 16 -1 19 -3 4 -6 -2 -5 -13z"/>
<path d="M9257 4190 c-3 -11 -1 -20 4 -20 5 0 9 9 9 20 0 11 -2 20 -4 20 -2 0
-6 -9 -9 -20z"/>
<path d="M9344 4196 c-3 -8 -4 -23 -2 -33 3 -11 6 -6 9 15 6 34 2 42 -7 18z"/>
<path d="M9253 4115 c0 -22 2 -30 4 -17 2 12 2 30 0 40 -3 9 -5 -1 -4 -23z"/>
<path d="M9331 4094 c0 -11 3 -14 6 -6 3 7 2 16 -1 19 -3 4 -6 -2 -5 -13z"/>
<path d="M9242 4050 c0 -14 2 -19 5 -12 2 6 2 18 0 25 -3 6 -5 1 -5 -13z"/>
<path d="M9321 4014 c0 -11 3 -14 6 -6 3 7 2 16 -1 19 -3 4 -6 -2 -5 -13z"/>
<path d="M9237 4013 c-3 -5 -7 -33 -11 -63 -7 -65 -1 -56 12 18 9 50 9 61 -1
45z"/>
<path d="M9309 3942 c-3 -20 -2 -29 4 -23 5 5 7 19 5 32 -3 20 -5 19 -9 -9z"/>
<path d="M9210 3868 c0 -13 -3 -34 -7 -48 -3 -14 -3 -23 0 -20 11 10 25 90 16
90 -5 0 -9 -10 -9 -22z"/>
<path d="M9291 3834 c0 -11 3 -14 6 -6 3 7 2 16 -1 19 -3 4 -6 -2 -5 -13z"/>
<path d="M9281 3794 c0 -11 3 -14 6 -6 3 7 2 16 -1 19 -3 4 -6 -2 -5 -13z"/>
<path d="M9271 3734 c0 -11 3 -14 6 -6 3 7 2 16 -1 19 -3 4 -6 -2 -5 -13z"/>
<path d="M9261 3694 c0 -11 3 -14 6 -6 3 7 2 16 -1 19 -3 4 -6 -2 -5 -13z"/>
<path d="M9251 3654 c0 -11 3 -14 6 -6 3 7 2 16 -1 19 -3 4 -6 -2 -5 -13z"/>
<path d="M9241 3614 c0 -11 3 -14 6 -6 3 7 2 16 -1 19 -3 4 -6 -2 -5 -13z"/>
<path d="M9231 3574 c0 -11 3 -14 6 -6 3 7 2 16 -1 19 -3 4 -6 -2 -5 -13z"/>
<path d="M9212 3499 c-17 -70 -9 -73 10 -4 8 30 12 55 8 55 -3 0 -12 -23 -18
-51z"/>
<path d="M9186 3415 c-3 -9 -6 -22 -5 -28 0 -7 5 -1 10 12 5 13 8 26 5 28 -2
2 -6 -3 -10 -12z"/>
<path d="M9140 3269 c-45 -138 -97 -279 -116 -311 -8 -16 -11 -28 -5 -28 5 0
18 24 29 53 11 28 26 66 33 82 6 17 13 35 15 40 9 35 77 233 85 248 5 9 5 17
1 17 -5 0 -24 -45 -42 -101z"/>
</g>
</svg>
