<?xml version="1.0" standalone="no"?>
<!DOCTYPE svg PUBLIC "-//W3C//DTD SVG 20010904//EN"
 "http://www.w3.org/TR/2001/REC-SVG-20010904/DTD/svg10.dtd">
<svg version="1.0" xmlns="http://www.w3.org/2000/svg"
 width="1361.000000pt" height="1361.000000pt" viewBox="0 0 1361.000000 1361.000000"
 preserveAspectRatio="xMidYMid meet">
<metadata>
Created by potrace 1.11, written by Peter Selinger 2001-2013
</metadata>
<g transform="translate(0.000000,1361.000000) scale(0.100000,-0.100000)"
fill="#000000" stroke="none">
<path d="M5838 12345 c-2 -2 -43 -6 -93 -9 -96 -7 -162 -14 -210 -21 -16 -2
-52 -7 -80 -10 -650 -79 -1359 -348 -1950 -740 -270 -180 -500 -370 -735 -612
-400 -409 -701 -852 -929 -1364 -113 -256 -250 -669 -285 -864 -3 -17 -8 -40
-11 -52 -14 -63 -23 -109 -29 -148 -3 -16 -12 -70 -20 -120 -8 -49 -18 -121
-22 -160 -3 -38 -8 -79 -10 -89 -10 -54 -18 -266 -18 -466 0 -274 12 -441 49
-680 12 -76 25 -158 30 -180 21 -106 30 -150 57 -255 181 -732 529 -1390 1041
-1970 91 -103 330 -341 382 -381 l35 -26 -128 -63 c-70 -34 -156 -80 -192
-102 -36 -22 -82 -48 -103 -58 -20 -9 -49 -31 -63 -48 -22 -27 -25 -38 -20
-74 6 -44 28 -88 56 -110 10 -8 42 -11 97 -9 87 4 108 10 97 28 -4 6 -3 8 3 5
11 -7 94 29 104 45 3 5 10 9 15 9 23 -2 74 22 68 31 -4 6 -2 8 4 5 5 -4 31 2
56 13 26 11 48 20 51 20 3 0 36 14 74 30 39 17 77 30 85 30 9 0 16 5 16 11 0
5 5 7 10 4 5 -3 10 -2 10 4 0 19 45 -6 167 -90 617 -428 1350 -703 2113 -793
331 -40 804 -40 1120 -2 19 3 60 7 90 11 30 3 62 8 70 10 8 3 33 7 55 10 88
11 167 25 185 32 8 3 22 7 31 8 52 6 235 51 241 59 4 6 10 8 13 4 4 -4 30 1
58 9 29 8 57 16 62 17 31 6 135 41 135 46 0 3 12 7 27 8 14 1 42 11 60 22 19
11 32 16 29 11 -4 -5 7 -4 23 2 17 6 27 15 24 21 -3 5 -1 6 5 3 12 -8 123 32
134 48 4 5 8 7 8 3 0 -11 73 22 88 41 7 9 11 10 7 4 -8 -16 -3 -16 29 -2 14 7
23 16 19 22 -3 5 0 7 8 5 8 -3 23 0 34 5 11 6 26 12 34 13 8 2 17 8 21 14 4 7
10 11 14 11 20 -3 26 0 20 11 -4 7 -3 8 4 4 14 -9 135 52 127 64 -3 5 0 12 6
16 8 4 9 3 5 -4 -4 -7 -1 -12 8 -12 9 0 16 4 16 9 0 5 11 12 25 15 14 4 23 11
20 16 -3 5 0 12 6 16 8 4 9 3 5 -4 -10 -17 7 -15 30 4 10 8 13 12 5 8 -9 -5
-12 -3 -7 5 4 6 12 9 17 6 11 -8 246 134 282 169 8 8 17 12 21 9 3 -3 8 2 12
11 3 9 10 16 16 16 20 0 98 62 92 72 -4 7 -2 8 5 4 7 -5 34 10 66 36 30 23 66
51 80 61 17 12 24 25 20 34 -4 13 -3 14 10 3 8 -7 15 -8 15 -4 0 5 11 16 24
24 49 31 166 143 159 154 -3 6 -3 8 2 4 12 -11 47 11 39 25 -4 7 -4 9 1 5 4
-4 14 -3 20 2 8 6 31 7 66 0 30 -5 72 -12 94 -15 60 -8 168 -27 235 -40 173
-33 260 -51 399 -82 105 -23 166 -32 168 -26 2 6 13 8 25 5 16 -4 19 -2 14 9
-4 8 -1 6 7 -3 8 -10 21 -18 30 -18 13 0 12 6 -5 42 -11 24 -24 44 -29 46 -4
2 -6 9 -3 16 3 8 -2 20 -10 29 -9 9 -16 18 -16 21 0 25 -74 74 -121 80 -13 2
-42 8 -64 14 -44 12 -89 22 -120 26 -11 2 -27 5 -35 8 -53 18 -100 24 -111 14
-9 -8 -10 -8 -6 0 8 13 -68 29 -85 18 -6 -4 -8 -3 -5 3 4 6 -12 13 -41 18 -26
3 -56 9 -67 11 -11 2 -37 6 -58 8 -59 6 -61 17 -12 66 24 25 44 49 45 54 0 4
12 17 26 28 14 11 23 26 20 34 -3 8 0 11 10 7 12 -5 19 7 15 30 0 4 5 6 11 5
7 -2 12 3 10 10 -1 8 2 11 7 7 12 -7 33 29 23 40 -4 5 -2 5 4 2 17 -10 139
146 129 163 -3 5 0 7 8 4 8 -2 19 5 25 18 7 13 24 38 37 57 14 18 22 38 19 42
-3 5 -1 8 5 7 10 -3 162 221 184 270 6 15 14 29 17 32 20 18 191 349 239 460
12 30 29 69 36 85 58 132 186 500 184 532 -1 20 0 22 -29 -72 -43 -141 -109
-322 -160 -440 -5 -11 -19 -42 -31 -70 -39 -90 -122 -256 -194 -385 -10 -19
-18 -38 -17 -42 1 -5 -2 -8 -6 -8 -5 0 -19 -19 -32 -43 -13 -23 -64 -102 -114
-176 -50 -73 -96 -141 -101 -151 -6 -9 -18 -24 -28 -34 -9 -10 -15 -22 -11
-27 3 -5 1 -8 -4 -7 -14 4 -73 -72 -65 -85 3 -5 1 -7 -4 -4 -6 4 -16 0 -23 -8
-10 -12 -10 -19 1 -32 13 -16 12 -17 -4 -4 -16 13 -19 12 -24 -7 -3 -12 -9
-19 -14 -16 -5 3 -9 1 -9 -3 0 -5 -11 -21 -26 -36 -14 -15 -22 -32 -18 -39 4
-6 3 -8 -4 -5 -14 9 -138 -131 -134 -152 2 -11 0 -12 -5 -4 -6 8 -20 0 -45
-27 -19 -21 -34 -40 -32 -42 2 -2 -6 -5 -18 -5 -20 -2 -20 -1 3 25 13 15 35
38 48 52 53 56 212 251 278 340 78 106 183 258 183 264 0 3 18 31 39 64 22 32
54 85 71 118 18 32 36 64 40 69 11 14 152 296 185 370 80 180 183 468 230 640
61 225 116 483 104 491 -5 3 -9 -5 -9 -18 0 -34 -45 -243 -85 -393 -119 -449
-318 -896 -572 -1285 -65 -98 -205 -293 -256 -356 -78 -95 -165 -195 -241
-277 -89 -96 -92 -98 -126 -92 -35 7 -87 15 -125 19 -11 2 -31 6 -45 9 -14 3
-47 9 -75 13 -27 3 -59 8 -70 9 -37 6 -90 13 -145 20 -30 4 -66 9 -80 12 -14
2 -38 6 -55 8 -120 14 -151 17 -168 21 -11 2 -52 6 -91 10 -39 3 -75 11 -81
16 -7 6 -7 8 0 6 14 -4 106 61 100 71 -2 5 3 8 13 7 9 0 16 5 14 12 -1 8 2 11
7 8 14 -9 183 144 177 160 -4 9 -2 12 5 8 13 -8 61 44 53 57 -3 5 1 7 8 4 16
-5 102 100 93 115 -3 5 0 8 7 5 17 -6 62 60 52 76 -5 8 -3 9 5 5 15 -10 42 23
36 42 -3 7 -1 11 4 8 12 -8 104 130 96 144 -4 6 -1 9 7 8 7 -2 12 3 10 10 -1
6 2 12 7 12 14 0 75 102 73 123 0 9 3 15 9 12 5 -3 17 11 26 32 10 21 23 44
30 51 6 7 17 28 24 47 7 19 17 35 21 35 4 0 8 4 8 9 0 5 20 46 46 91 25 45 43
84 40 87 -2 3 4 13 15 24 21 21 26 45 7 33 -7 -4 -8 -3 -4 5 4 6 11 9 16 6 8
-5 26 33 22 48 -1 4 3 7 8 7 8 0 28 34 35 60 0 3 8 19 18 36 9 17 13 34 10 38
-4 3 -2 6 4 6 6 0 27 37 46 83 20 45 42 95 51 111 11 22 12 33 4 43 -8 10 -7
12 3 8 10 -4 22 17 43 72 16 43 34 83 39 90 5 7 6 17 2 23 -3 5 -2 10 3 10 7
0 35 68 37 90 1 3 11 31 23 63 12 32 20 62 17 67 -3 5 0 10 6 12 7 2 12 18 13
35 0 17 4 29 9 26 12 -7 8 12 -5 26 -11 10 -9 11 6 5 16 -6 18 -4 13 9 -3 9
-3 17 1 17 5 0 14 24 22 53 8 28 16 59 18 67 2 8 5 25 6 37 0 11 4 19 7 17 3
-2 14 34 24 79 10 45 20 87 21 92 10 34 53 226 57 255 3 19 14 87 26 150 11
63 20 124 20 135 0 11 2 31 5 45 3 14 8 48 11 75 2 28 7 68 10 90 6 48 14 158
20 280 3 50 5 90 6 90 0 0 2 30 3 67 1 37 5 70 10 75 5 4 6 3 2 -4 -4 -7 -4
-13 -1 -13 8 0 68 32 75 41 3 3 20 11 37 18 18 7 30 18 26 24 -3 5 -2 8 3 4
11 -6 87 27 79 35 -3 2 2 5 10 5 14 0 84 32 95 43 3 3 10 6 15 7 6 1 37 13 70
27 71 29 62 40 95 -119 13 -60 25 -104 27 -98 2 6 -8 61 -22 124 -24 107 -24
114 -8 123 33 19 51 17 56 -7 3 -15 5 -12 6 11 0 18 7 35 15 38 17 7 15 32 -5
45 -10 6 -10 9 -1 9 20 0 14 17 -21 52 -23 23 -40 56 -56 106 -13 41 -25 72
-27 69 -2 -2 5 -30 16 -63 25 -75 25 -84 -1 -84 -37 0 -57 18 -64 60 -4 22
-11 43 -17 46 -6 4 -8 -1 -5 -12 23 -76 24 -74 -30 -74 -67 0 -129 -20 -267
-85 -64 -30 -119 -55 -123 -55 -5 0 -9 35 -10 77 -2 48 -8 80 -15 85 -10 6
-10 8 0 8 7 0 10 4 7 10 -3 5 -8 31 -10 57 -4 41 -14 100 -20 126 -2 4 -3 21
-4 38 0 16 -5 28 -10 25 -4 -3 -7 8 -5 24 2 17 -1 30 -6 30 -5 0 -7 6 -5 13 6
16 -29 160 -37 151 -4 -3 -4 4 -1 17 4 13 2 20 -4 16 -5 -3 -9 4 -8 16 2 21
-43 156 -55 167 -3 3 -6 13 -8 23 -2 10 -12 34 -22 53 -11 19 -17 34 -14 34 2
0 0 9 -6 20 -6 11 -16 17 -22 14 -7 -4 -8 -2 -4 5 10 15 -22 84 -34 76 -6 -3
-7 1 -4 9 3 9 1 16 -5 16 -6 0 -10 6 -8 13 1 6 -4 11 -11 9 -8 -1 -11 2 -6 9
4 7 -1 18 -11 26 -11 7 -15 13 -11 13 5 0 3 7 -4 15 -7 8 -17 12 -23 8 -6 -3
-7 -1 -3 5 8 14 -34 63 -47 55 -6 -3 -7 -1 -3 6 9 14 -69 91 -92 91 -8 0 -12
3 -9 6 9 9 -63 65 -74 58 -5 -3 -9 -1 -9 4 0 19 -129 73 -246 103 -387 98
-821 -31 -1129 -337 -204 -202 -344 -425 -564 -898 -49 -107 -74 -150 -87
-152 -17 -2 -17 -1 -4 9 16 13 20 31 8 42 -4 4 -4 15 1 24 11 23 7 46 -8 43
-7 -1 -10 2 -6 8 3 6 10 8 14 5 11 -6 8 76 -3 94 -6 9 -5 12 2 7 17 -10 9 43
-8 55 -12 9 -12 10 3 5 14 -4 17 -2 15 12 -2 9 -10 16 -17 14 -7 -1 -10 2 -6
8 3 6 10 8 15 5 4 -3 6 43 4 103 -2 59 -4 171 -4 250 0 106 -3 141 -11 136 -8
-5 -9 -3 -4 6 12 19 7 90 -11 178 -25 121 -62 187 -110 196 -11 2 -45 12 -77
21 -49 14 -86 16 -224 11 -91 -3 -169 -8 -172 -12 -14 -14 -4 -428 14 -540 11
-70 27 -536 40 -1161 l5 -233 -89 -222 c-382 -957 -740 -1754 -1074 -2393
-199 -381 -277 -526 -303 -565 l-29 -44 -5 35 c-3 19 -3 36 0 39 3 3 6 13 8
24 2 13 -1 16 -10 10 -10 -6 -11 -5 -1 7 14 17 20 100 8 118 -5 9 -4 12 3 7 7
-4 10 5 8 29 -2 19 1 38 6 41 6 4 5 10 -3 15 -8 5 -9 9 -4 9 15 0 16 40 2 40
-9 0 -9 2 -1 8 7 4 15 43 18 87 16 192 26 287 32 297 3 4 -1 8 -8 8 -8 0 -9 3
-3 8 12 8 11 6 20 97 3 39 8 84 10 100 2 17 6 56 9 88 3 32 8 62 11 68 4 5 0
9 -7 9 -8 0 -9 3 -3 8 12 8 13 16 19 79 3 27 7 66 10 88 4 22 8 60 10 83 3 24
7 46 10 49 3 3 1 15 -5 26 -8 14 -8 18 0 13 7 -5 11 3 12 21 2 43 7 85 13 113
4 14 8 45 10 68 3 24 7 46 10 49 3 4 0 13 -7 21 -10 13 -9 14 1 8 10 -6 13 -3
12 10 -1 11 -1 22 0 27 5 16 7 24 15 92 5 39 9 80 8 93 -1 12 2 22 7 22 6 0 9
3 8 8 -2 6 6 68 16 132 3 14 7 43 10 65 3 22 12 81 21 130 9 50 18 104 20 120
1 17 5 37 8 45 3 8 13 58 21 110 16 98 20 119 36 205 6 28 12 64 14 80 2 17 6
37 9 45 6 17 8 32 10 89 1 22 6 37 11 34 5 -3 7 8 4 25 -2 17 -1 29 3 27 4 -3
10 16 14 41 3 25 9 56 11 67 19 88 24 129 18 139 -4 6 -3 8 3 5 12 -7 27 79
16 96 -3 6 -1 7 5 3 8 -5 12 1 13 16 0 13 3 34 6 48 4 14 7 39 7 57 1 17 4 29
9 26 4 -2 7 4 8 14 0 10 2 25 4 33 17 83 18 93 4 86 -8 -4 -6 -1 4 7 10 8 20
30 22 48 2 19 9 54 15 78 6 24 8 51 6 58 -4 9 -1 11 6 7 7 -5 9 -2 5 8 -3 9
-3 19 1 23 3 3 7 16 9 28 1 12 9 51 18 86 9 36 14 73 12 83 -3 10 -2 16 3 13
14 -9 21 27 8 43 -10 12 -10 14 0 8 11 -7 13 -3 17 44 0 8 4 21 8 27 8 12 14
46 20 103 1 14 6 28 11 31 4 4 9 27 10 52 0 25 4 43 7 41 4 -2 9 10 13 27 9
44 8 51 -6 43 -7 -4 -8 -3 -4 5 4 6 11 9 16 6 5 -3 13 14 18 37 61 262 59 251
67 366 3 44 1 71 -4 67 -5 -3 -13 -1 -16 5 -4 6 -1 9 7 8 36 -8 -3 139 -50
190 -9 10 -16 11 -26 3 -9 -8 -13 -7 -13 4 0 8 4 12 9 9 4 -3 8 0 8 5 0 6 -7
11 -15 11 -8 0 -15 5 -15 11 0 6 -7 9 -15 5 -8 -3 -14 -1 -12 5 2 9 -73 58
-98 64 -5 1 -23 7 -38 14 -16 6 -33 8 -39 5 -6 -4 -8 -2 -5 3 17 28 -210 27
-266 -1 -112 -55 -310 -308 -494 -631 -39 -67 -76 -138 -321 -615 -61 -118
-131 -251 -157 -295 -50 -86 -192 -369 -239 -475 -16 -36 -84 -200 -153 -365
-68 -165 -128 -309 -133 -320 -5 -11 -45 -102 -89 -202 -80 -185 -121 -261
-164 -302 l-24 -22 -11 28 c-5 15 -14 37 -18 48 -4 11 -6 26 -5 33 1 6 -6 12
-16 12 -12 0 -14 3 -6 8 9 6 10 25 2 77 -5 38 -10 93 -11 122 -1 29 -6 53 -11
53 -4 0 -5 5 -1 12 11 18 11 57 0 51 -5 -4 -6 0 0 8 13 21 12 179 -1 171 -6
-3 -6 0 1 9 6 8 11 21 11 29 0 47 16 256 20 263 2 4 -1 7 -7 7 -6 0 -8 5 -4
12 13 21 13 108 0 101 -6 -3 -5 0 2 8 6 7 12 25 12 39 0 14 -6 32 -12 39 -10
11 -10 13 0 7 9 -6 12 13 12 78 0 47 -5 88 -10 91 -7 4 -7 12 0 25 12 22 13
33 3 27 -5 -3 -9 16 -10 42 -2 52 -40 147 -69 172 -30 27 -94 60 -104 54 -4
-3 -10 0 -12 5 -2 6 -10 12 -18 13 -8 2 -20 6 -26 9 -10 7 -39 14 -104 26 -19
3 -75 6 -125 6 -76 0 -98 -4 -145 -25 -81 -38 -147 -96 -267 -232 -108 -123
-146 -160 -124 -118 9 16 9 21 -1 21 -9 0 -10 3 -2 8 27 18 39 178 17 232 -13
33 -47 68 -67 68 -5 0 -12 5 -16 12 -4 6 -13 12 -21 13 -8 2 -20 6 -26 10 -7
5 -21 10 -30 12 -10 2 -85 18 -168 35 -188 40 -183 39 -286 46 -74 5 -93 3
-133 -14 -51 -23 -51 -23 -32 -102 14 -60 19 -158 20 -405 0 -154 -10 -423
-18 -475 -2 -14 -7 -65 -11 -115 -3 -49 -12 -148 -20 -220 -19 -166 -44 -380
-50 -425 -13 -99 -44 -364 -42 -366 11 -11 183 -105 222 -121 91 -38 212 -49
315 -29 47 10 112 47 106 63 -3 8 1 10 11 6 13 -5 15 -2 10 11 -4 10 -3 15 3
11 8 -5 35 42 30 54 -1 2 3 7 8 10 10 7 49 113 55 148 2 12 6 26 10 29 12 12
8 26 -5 19 -7 -4 -6 0 3 7 14 11 25 41 35 95 4 21 97 248 107 260 5 7 7 20 3
28 -3 9 -2 14 3 11 12 -8 23 22 14 37 -3 7 -2 8 2 4 10 -9 47 61 39 74 -3 5
-1 9 4 9 13 0 33 50 26 62 -4 6 -3 8 3 5 9 -5 69 111 63 122 -1 2 3 7 8 10 5
3 26 40 46 80 32 67 34 77 21 91 -13 15 -13 17 0 17 8 0 12 -4 9 -8 -2 -4 0
-10 6 -14 6 -3 13 2 17 12 3 10 13 26 21 35 8 10 12 24 9 32 -4 9 -1 18 5 22
7 5 8 2 4 -7 -4 -8 0 -5 8 6 9 11 14 26 11 34 -3 9 -3 12 1 8 4 -4 20 13 36
38 30 49 34 60 16 49 -7 -4 -8 -3 -4 5 4 6 11 9 16 6 4 -3 25 24 46 60 21 35
40 62 43 60 3 -3 6 -114 7 -248 5 -418 12 -520 50 -692 49 -225 175 -412 319
-476 36 -16 64 -20 143 -18 98 2 179 18 165 32 -4 5 0 5 10 1 10 -3 17 -1 17
5 0 6 3 10 8 9 14 -3 42 14 36 23 -3 5 2 9 10 9 14 0 121 99 156 145 35 46
100 145 95 145 -3 0 4 10 15 22 11 13 23 33 26 45 4 13 11 23 16 23 6 0 7 7 4
16 -3 8 -2 13 2 10 9 -5 47 63 44 77 -1 4 3 7 9 7 6 0 9 7 5 15 -3 8 -2 15 2
15 13 0 44 59 37 70 -3 6 -2 10 4 10 14 0 63 101 57 117 -3 8 -2 12 3 9 11 -7
33 43 25 56 -4 7 -2 8 4 4 7 -4 12 -1 12 8 0 9 5 16 12 16 6 0 8 3 5 7 -4 3
-1 16 6 27 22 35 30 60 14 50 -7 -5 -5 -1 6 8 10 10 16 22 13 27 -3 5 1 12 10
15 8 3 12 11 8 17 -3 6 -3 14 2 18 5 3 15 16 22 29 9 17 9 22 0 22 -6 0 -3 6
7 14 12 9 16 19 11 32 -4 10 -4 15 0 11 9 -9 45 64 38 75 -3 5 -1 8 4 8 9 0
39 79 34 93 -1 4 3 7 9 7 5 0 7 5 4 10 -3 6 -1 10 4 10 6 0 11 6 11 14 0 7 11
39 25 69 17 40 21 57 12 61 -7 2 -4 5 6 5 16 1 21 14 20 49 -1 7 2 11 5 8 5
-6 79 170 88 209 2 11 8 21 14 23 6 2 8 7 5 11 -2 5 5 27 16 50 11 23 17 47
13 53 -4 6 -3 8 3 5 6 -4 15 5 21 21 6 15 17 44 27 65 9 22 11 36 6 32 -6 -3
-11 -1 -11 4 0 6 6 11 14 11 16 0 41 54 31 70 -3 6 -1 9 6 8 7 -2 13 2 14 7 1
16 136 285 177 353 21 34 34 62 30 62 -4 0 1 5 11 11 9 5 17 16 17 24 0 8 11
26 25 41 13 14 22 30 19 35 -3 5 -2 9 3 9 4 0 23 23 42 50 19 28 36 49 38 47
2 -2 -15 -80 -36 -173 -140 -601 -330 -1549 -386 -1919 -3 -22 -8 -53 -11 -68
-25 -147 -97 -659 -120 -862 -3 -27 -7 -66 -9 -85 -23 -192 -58 -606 -69 -825
-4 -66 -9 -149 -11 -185 -2 -36 -7 -141 -11 -235 -3 -93 -8 -186 -10 -205 -3
-19 -6 -147 -7 -284 -2 -209 -5 -250 -17 -251 -8 -1 -37 -5 -65 -9 -27 -3 -59
-8 -70 -10 -11 -2 -56 -9 -100 -16 -110 -16 -97 -13 -380 -66 -104 -19 -251
-49 -325 -66 -74 -16 -148 -32 -165 -35 -16 -3 -98 -25 -183 -49 -84 -24 -155
-44 -156 -44 -2 0 -13 9 -26 20 -12 11 -26 17 -31 15 -4 -3 -11 0 -15 6 -5 8
-3 9 7 4 8 -5 -4 10 -26 33 -22 23 -45 40 -52 37 -7 -2 -15 1 -19 7 -4 7 -3 8
4 4 7 -4 12 -4 12 -1 0 7 -101 105 -108 105 -2 0 -10 7 -18 15 -9 8 -13 15
-10 15 4 0 -21 28 -55 63 -34 34 -66 60 -73 59 -6 -2 -8 0 -4 4 11 10 -103
148 -116 139 -3 -3 -4 -2 -1 1 8 12 -16 45 -27 38 -6 -4 -8 -3 -5 3 6 10 -39
68 -53 68 -5 0 -12 4 -17 9 -5 5 -2 6 6 1 18 -10 13 0 -24 52 -16 23 -35 40
-42 38 -7 -2 -10 2 -6 11 3 8 -3 25 -14 37 -11 12 -48 65 -82 117 -34 52 -66
94 -71 93 -5 -2 -7 3 -4 11 3 7 -1 20 -8 27 -19 20 -118 194 -118 208 0 6 -4
11 -10 11 -5 0 -10 7 -10 15 0 8 -5 15 -10 15 -6 0 -9 3 -9 8 3 18 -2 33 -9
28 -5 -3 -9 1 -9 8 0 7 -18 51 -41 97 -22 46 -46 97 -51 112 -6 16 -15 26 -20
23 -5 -4 -7 2 -4 12 2 11 -1 25 -9 33 -7 8 -15 23 -16 34 -2 11 -7 22 -10 25
-4 3 -9 14 -10 25 -2 10 -12 37 -22 60 -10 22 -24 58 -31 80 -7 22 -16 45 -20
50 -3 6 -12 31 -19 58 -7 26 -17 47 -22 47 -5 0 -7 4 -4 9 3 5 -1 28 -10 52
-18 51 -19 53 -29 96 -4 18 -10 31 -14 29 -3 -2 -7 12 -8 32 -1 19 -8 39 -15
43 -10 7 -10 9 2 9 9 0 11 3 5 8 -6 4 -12 21 -14 37 -1 17 -6 32 -10 35 -3 3
-7 22 -9 43 -1 21 -8 50 -14 65 -6 15 -10 37 -9 50 1 12 -1 22 -6 22 -4 0 -9
21 -11 47 -1 26 -6 50 -10 53 -4 3 -8 27 -10 54 -1 27 -8 56 -15 64 -10 13 -9
14 2 8 9 -6 12 -4 9 5 -3 8 -10 14 -15 14 -6 0 -15 4 -20 8 -4 5 -1 7 7 5 10
-2 15 5 14 22 -2 32 -12 124 -14 130 -1 3 -3 12 -4 20 0 8 -7 14 -14 12 -8 -1
-11 2 -7 8 3 6 11 8 16 5 5 -4 7 4 5 17 -3 13 -5 42 -5 66 -1 32 -4 41 -13 36
-10 -6 -10 -4 -3 7 6 8 10 32 8 54 -6 89 -5 464 2 474 3 6 1 11 -5 11 -7 0 -8
6 0 19 13 26 13 34 -2 25 -10 -6 -10 -4 -2 7 6 8 12 37 14 64 5 96 18 207 25
213 3 3 -1 12 -8 20 -9 13 -9 14 1 8 9 -5 11 3 9 33 -2 22 0 38 5 35 4 -3 8 5
9 18 1 33 5 63 23 148 8 41 17 88 20 104 3 16 8 31 10 34 3 3 0 12 -7 20 -8
11 -8 14 0 9 8 -5 16 16 28 65 9 40 18 81 21 92 5 13 2 17 -7 12 -8 -4 -7 -1
2 6 14 11 30 54 35 93 0 6 4 17 7 25 26 62 53 151 52 168 -1 12 2 19 7 16 7
-5 12 13 11 44 -1 6 3 12 7 12 8 0 21 40 17 51 -1 3 3 12 10 20 20 25 74 170
67 182 -4 7 -3 9 1 4 11 -10 77 132 68 147 -3 6 -3 8 2 4 10 -9 106 183 98
196 -4 5 -1 6 7 1 10 -6 12 -3 8 13 -4 12 -2 20 3 17 5 -4 18 9 29 27 22 37
26 53 8 42 -7 -4 -8 -3 -4 5 4 6 11 9 15 7 4 -3 21 20 37 50 16 29 32 54 35
54 3 0 11 16 19 35 8 19 18 35 23 35 5 0 7 7 3 15 -3 8 -1 14 3 12 10 -2 101
126 101 143 0 5 4 10 10 10 5 0 16 12 24 28 8 15 28 42 45 61 17 19 30 42 29
50 -2 9 2 15 9 14 6 -1 24 14 39 35 40 53 47 60 69 84 11 12 13 17 5 13 -8 -5
2 8 23 28 21 20 35 41 32 47 -4 6 -3 10 2 9 19 -3 33 2 33 12 0 5 -6 7 -12 3
-8 -4 -10 -3 -5 2 5 5 12 9 16 9 15 0 91 87 85 97 -4 6 -3 8 3 5 13 -8 46 27
36 38 -5 4 -3 5 3 2 12 -7 94 74 94 93 0 6 5 8 11 5 12 -8 40 26 32 39 -4 5
-1 6 5 2 12 -7 108 80 104 95 -1 6 2 8 7 5 12 -8 83 53 76 64 -3 4 3 7 13 6 9
0 16 5 14 12 -1 8 2 11 8 7 5 -3 13 1 16 9 3 9 11 13 17 9 6 -4 8 0 4 10 -3 9
-1 19 5 23 7 4 8 3 4 -4 -12 -20 8 -13 34 11 14 12 40 33 58 46 18 12 30 26
27 31 -3 4 3 7 13 6 9 0 16 4 15 10 -1 6 4 11 11 11 10 0 69 36 86 53 3 3 24
18 48 34 23 16 42 33 42 39 0 6 3 8 6 4 4 -3 32 11 63 32 31 21 79 51 106 66
28 16 52 32 55 35 3 3 31 19 62 35 48 25 55 32 45 45 -10 13 -10 13 3 3 13
-10 38 -1 137 50 67 34 120 64 118 67 -2 4 6 6 18 6 13 -1 21 4 19 12 -1 8 2
11 8 7 12 -8 102 24 96 34 -3 4 7 8 22 9 14 1 28 5 31 10 3 4 12 7 19 8 30 2
34 5 28 20 -5 13 -4 14 7 5 11 -8 25 -6 63 11 27 12 58 23 69 25 10 2 22 7 25
11 3 4 10 8 15 8 30 4 135 39 135 46 0 4 7 4 17 1 12 -5 14 -3 8 7 -5 9 -4 11
4 6 17 -11 73 3 65 16 -4 6 -2 8 4 4 12 -7 153 24 147 33 -2 3 9 7 23 7 15 1
38 4 52 8 14 4 43 9 65 12 22 4 42 10 43 15 2 5 7 7 12 4 4 -2 41 2 81 9 41 8
92 17 114 20 22 3 51 8 65 11 14 3 52 7 85 11 33 3 74 7 90 9 197 26 700 26
855 0 14 -2 48 -7 75 -10 64 -7 141 -18 220 -31 17 -3 73 -14 125 -25 52 -11
106 -22 120 -24 61 -11 328 -88 460 -134 536 -182 1093 -506 1514 -880 72 -63
340 -333 406 -410 371 -424 678 -952 861 -1483 19 -54 37 -98 40 -98 9 0 -64
209 -126 365 -64 163 -212 463 -303 615 -211 354 -463 674 -751 957 -58 56
-106 109 -107 118 -1 9 1 14 4 10 4 -4 7 -10 7 -15 0 -14 65 -71 75 -65 6 3 7
-1 4 -9 -3 -9 -2 -16 3 -16 6 0 31 -20 56 -45 26 -25 52 -45 59 -45 6 0 9 -3
6 -6 -8 -7 72 -90 83 -87 5 2 9 -1 9 -5 0 -16 53 -71 63 -65 5 3 7 2 4 -4 -8
-13 37 -56 48 -46 4 5 5 3 2 -3 -7 -13 37 -66 47 -56 4 4 6 0 4 -8 -2 -8 3
-14 10 -12 8 1 11 -2 8 -6 -8 -13 29 -54 39 -44 5 4 5 2 2 -4 -4 -6 3 -23 16
-36 27 -31 65 -79 148 -188 35 -47 66 -87 69 -90 3 -3 11 -17 19 -32 8 -15 22
-37 33 -47 10 -11 18 -25 18 -31 0 -5 5 -10 10 -10 6 0 10 -5 10 -10 0 -6 18
-38 40 -71 22 -33 40 -63 40 -66 0 -3 8 -17 19 -31 25 -36 56 -91 103 -184 21
-43 43 -78 48 -78 10 0 -96 213 -143 287 -15 24 -27 47 -27 53 0 5 -4 10 -10
10 -5 0 -10 6 -10 13 -1 11 -66 117 -90 144 -5 7 -10 15 -10 18 0 17 -93 134
-102 128 -7 -3 -8 -1 -4 6 9 15 -32 73 -46 65 -7 -4 -8 -2 -4 4 6 10 -24 60
-59 98 -5 6 -21 26 -35 44 -14 19 -50 63 -81 99 -31 36 -64 76 -74 88 -10 12
-22 20 -27 17 -5 -3 -7 0 -6 8 2 7 -3 12 -10 10 -8 -1 -11 1 -8 6 8 14 -47 60
-67 57 -9 -2 -15 1 -11 6 3 5 10 7 15 4 5 -4 9 -2 9 4 0 17 -20 23 -35 11 -10
-8 -15 -8 -21 1 -4 7 -3 9 4 5 6 -3 14 -2 17 4 7 11 -63 87 -76 83 -4 -2 -10
5 -13 15 -3 10 -16 24 -27 32 -12 8 -40 34 -62 57 -22 23 -45 40 -51 36 -6 -3
-8 -3 -4 2 10 11 -20 38 -33 29 -7 -4 -9 -3 -6 3 9 15 -49 67 -64 58 -7 -5
-10 -4 -6 3 4 5 -15 29 -43 52 -27 23 -50 39 -50 36 0 -3 -11 6 -25 20 -14 14
-30 22 -37 18 -6 -4 -8 -3 -5 3 4 6 -5 20 -21 32 -68 53 -96 70 -105 64 -6 -3
-7 -1 -4 5 4 6 -20 28 -54 52 -34 23 -58 36 -53 28 4 -7 -6 1 -22 17 -17 17
-44 37 -60 45 -16 8 -35 21 -42 28 -13 11 -27 16 -45 13 -4 0 -6 5 -5 11 2 8
-6 13 -19 12 -13 -1 -20 3 -17 7 3 5 -3 12 -13 16 -10 4 -33 18 -52 30 -19 13
-41 21 -48 18 -8 -2 -12 -1 -9 4 7 10 -132 87 -152 85 -7 -1 -11 0 -8 4 7 7
-167 91 -176 85 -5 -2 -8 -1 -8 4 0 4 -15 14 -32 22 -18 7 -46 19 -63 26 -117
51 -226 91 -234 86 -2 -2 -7 1 -10 6 -6 9 -123 50 -156 55 -11 2 -22 6 -25 10
-3 3 -19 8 -35 10 -17 2 -33 6 -36 10 -3 5 -18 9 -35 10 -16 1 -31 5 -34 9
-12 15 -405 103 -426 95 -7 -3 -14 -1 -16 4 -2 4 -25 11 -53 14 -27 4 -59 9
-70 11 -11 3 -40 7 -65 10 -25 3 -58 7 -75 9 -16 2 -64 7 -105 11 -41 4 -91
10 -110 12 -41 5 -667 13 -672 8z m2377 -495 c3 -6 -1 -7 -9 -4 -18 7 -21 14
-7 14 6 0 13 -4 16 -10z m153 -85 c-3 -3 -9 2 -12 12 -6 14 -5 15 5 6 7 -7 10
-15 7 -18z m302 -175 c0 -5 -5 -10 -11 -10 -5 0 -7 5 -4 10 3 6 8 10 11 10 2
0 4 -4 4 -10z m274 -189 c-2 -3 -12 3 -22 13 -16 17 -16 18 5 5 12 -7 20 -15
17 -18z m-5204 16 c0 -2 -9 -12 -19 -21 -14 -13 -21 -14 -27 -5 -4 7 -3 10 3
6 6 -4 16 0 23 8 12 14 20 19 20 12z m-159 -124 c-12 -20 -14 -14 -5 12 4 9 9
14 11 11 3 -2 0 -13 -6 -23z m5563 -61 c3 -5 -1 -9 -9 -9 -8 0 -12 4 -9 9 3 4
7 8 9 8 2 0 6 -4 9 -8z m-5798 -118 c1 -9 0 -13 -4 -10 -3 4 -7 14 -8 22 -1 9
0 13 4 10 3 -4 7 -14 8 -22z m5964 -4 c0 -5 -2 -10 -4 -10 -3 0 -8 5 -11 10
-3 6 -1 10 4 10 6 0 11 -4 11 -10z m-6030 -76 c0 -8 -19 -13 -24 -6 -3 5 1 9
9 9 8 0 15 -2 15 -3z m-390 -378 c0 -3 -4 -8 -10 -11 -5 -3 -10 -1 -10 4 0 6
5 11 10 11 6 0 10 -2 10 -4z m-183 -215 c0 -11 -5 -18 -9 -15 -4 3 -5 11 -1
19 7 21 12 19 10 -4z m3440 -140 c0 -11 -5 -18 -9 -15 -4 3 -5 11 -1 19 7 21
12 19 10 -4z m-3597 -111 c0 -5 -2 -10 -4 -10 -3 0 -8 5 -11 10 -3 6 -1 10 4
10 6 0 11 -4 11 -10z m3675 1 c3 -5 2 -12 -3 -15 -5 -3 -9 1 -9 9 0 17 3 19
12 6z m1161 -77 c1 -9 0 -13 -4 -10 -3 4 -7 14 -8 22 -1 9 0 13 4 10 3 -4 7
-14 8 -22z m-4921 -13 c3 -5 2 -12 -3 -15 -5 -3 -9 1 -9 9 0 17 3 19 12 6z
m6719 -22 c83 -28 134 -59 206 -126 229 -212 358 -642 356 -1188 l-1 -119
-116 -81 c-211 -145 -387 -277 -577 -428 -103 -82 -189 -153 -192 -156 -3 -3
-43 -40 -90 -81 -47 -41 -90 -79 -96 -85 -39 -35 -242 -236 -310 -307 -92 -96
-259 -293 -350 -413 -385 -509 -620 -1096 -663 -1655 -20 -264 11 -504 85
-651 13 -26 21 -49 18 -51 -2 -3 -66 -3 -142 0 -311 12 -1046 5 -1287 -12
-240 -18 -280 -18 -260 -3 11 9 17 19 13 23 -5 4 1 13 12 21 11 8 20 23 20 34
0 11 4 18 9 15 11 -7 23 22 14 36 -3 6 -1 8 4 5 14 -9 37 19 27 34 -4 8 -3 9
5 5 6 -4 14 0 18 11 3 10 15 30 25 45 11 16 16 33 12 39 -4 8 -3 9 4 5 9 -5
45 44 47 64 0 3 10 19 23 37 12 17 22 36 22 42 0 6 5 11 11 11 5 0 7 5 4 10
-3 6 -3 10 2 10 4 0 22 28 38 63 17 34 34 65 39 68 5 4 5 13 1 20 -5 8 -5 11
0 7 9 -9 48 59 40 71 -3 5 2 12 11 15 8 3 13 10 10 15 -4 5 -3 11 1 13 12 5
55 88 46 88 -4 0 -3 4 3 8 15 9 65 116 67 141 0 11 4 18 7 16 3 -2 16 19 29
46 19 43 20 53 9 67 -11 15 -11 15 2 5 12 -9 18 -5 32 23 10 19 13 34 8 34 -6
0 -1 9 10 20 18 18 25 39 21 63 0 4 4 7 9 7 6 0 10 9 10 20 0 11 5 20 10 20 6
0 10 7 10 15 0 8 4 23 10 33 19 34 53 117 53 130 0 6 5 12 10 12 5 0 3 8 -4
17 -10 12 -10 14 -1 9 7 -4 14 -2 17 6 2 7 10 27 16 43 7 17 13 32 14 35 1 3
7 19 14 35 7 17 14 35 15 40 1 6 5 15 9 21 17 28 90 232 91 256 0 14 4 24 7
22 3 -2 12 16 19 39 8 23 22 61 32 85 9 23 13 42 8 42 -6 0 -10 4 -10 10 0 5
5 9 12 7 7 -1 17 16 22 38 6 22 14 43 18 46 5 3 10 19 11 35 1 16 4 31 7 34 3
3 11 17 17 33 10 21 10 27 0 27 -9 0 -9 2 0 8 16 10 45 92 39 109 -3 7 -1 13
4 13 4 0 11 14 15 30 4 17 11 30 15 30 5 0 8 -6 5 -12 -2 -7 -6 -141 -10 -298
-3 -157 -8 -307 -10 -335 -2 -27 -6 -126 -10 -220 -3 -93 -8 -188 -10 -210 -2
-22 -7 -96 -10 -165 -3 -69 -8 -147 -10 -175 -4 -47 -6 -81 -20 -280 -3 -44
-8 -93 -10 -110 -11 -86 -20 -241 -20 -331 0 -92 3 -104 27 -141 33 -50 101
-85 176 -91 63 -5 192 22 239 50 37 22 76 84 70 110 -3 10 -1 15 5 12 6 -4 8
56 4 177 -7 228 -7 320 -1 330 3 4 1 11 -5 14 -7 5 -8 11 -1 19 5 6 12 52 14
102 2 50 8 97 12 104 6 9 4 11 -6 5 -11 -7 -12 -6 -2 6 6 8 14 50 17 94 3 44
8 91 11 105 3 14 8 66 11 115 3 50 8 115 10 145 2 30 6 82 9 115 2 33 4 60 5
60 4 0 10 71 13 142 1 46 4 83 7 83 3 0 7 12 8 28 1 15 7 70 13 122 6 52 12
111 14 131 1 20 5 40 8 46 5 9 11 39 22 130 2 18 6 36 8 40 3 4 8 32 12 62 6
52 9 67 20 121 2 14 7 36 9 50 3 14 10 51 16 83 6 33 9 65 6 73 -3 8 -1 14 5
14 7 0 9 12 7 29 -2 17 -2 28 2 26 9 -6 42 174 34 187 -4 6 -3 8 2 5 8 -5 40
123 49 193 1 8 5 22 8 30 9 24 48 181 51 204 2 11 9 35 15 51 21 54 21 56 8
49 -9 -6 -9 -4 -1 7 15 19 54 144 57 179 1 15 5 26 8 24 9 -5 20 56 12 69 -3
6 -1 7 5 3 7 -4 13 -2 13 3 2 15 4 23 13 43 4 9 9 22 10 30 2 7 8 26 14 41 7
16 12 31 12 34 0 3 7 19 15 36 32 71 64 170 58 180 -3 5 -1 7 4 4 6 -4 20 17
34 51 12 31 29 67 37 79 8 13 12 30 8 38 -3 9 -2 14 3 10 5 -3 20 16 33 42 13
27 50 94 81 150 32 57 57 105 57 109 -1 4 4 10 12 15 7 5 13 12 13 17 0 5 8
16 18 26 16 16 21 30 18 48 0 5 3 7 8 5 5 -1 11 2 13 8 1 5 15 23 31 39 28 31
36 53 15 40 -7 -4 -8 -3 -4 5 4 6 11 9 15 6 5 -2 23 15 42 38 18 23 39 46 46
50 7 5 11 12 8 18 -4 5 -2 9 4 9 10 0 61 47 61 56 0 3 -6 2 -12 -2 -7 -4 -10
-4 -6 0 3 4 8 6 10 4 8 -7 88 64 82 73 -3 5 -2 9 3 8 19 -3 32 3 57 27 14 15
26 23 26 19 0 -5 8 -1 18 8 32 29 174 88 231 96 84 11 196 3 265 -20z m-2994
-9 c0 -5 -5 -10 -11 -10 -5 0 -7 5 -4 10 3 6 8 10 11 10 2 0 4 -4 4 -10z m0
-80 c0 -5 -2 -10 -4 -10 -3 0 -8 5 -11 10 -3 6 -1 10 4 10 6 0 11 -4 11 -10z
m1235 0 c3 -5 1 -10 -4 -10 -6 0 -11 5 -11 10 0 6 2 10 4 10 3 0 8 -4 11 -10z
m-5035 -14 c0 -3 -4 -8 -10 -11 -5 -3 -10 -1 -10 4 0 6 5 11 10 11 6 0 10 -2
10 -4z m-20 -44 c0 -5 -7 -9 -15 -9 -8 0 -12 4 -9 9 3 4 9 8 15 8 5 0 9 -4 9
-8z m7441 -39 c13 -16 12 -17 -3 -4 -10 7 -18 15 -18 17 0 8 8 3 21 -13z
m-3624 -58 c0 -8 -4 -12 -9 -9 -5 3 -6 10 -3 15 9 13 12 11 12 -6z m-3877 -5
c0 -5 -2 -10 -4 -10 -3 0 -8 5 -11 10 -3 6 -1 10 4 10 6 0 11 -4 11 -10z
m3818 -65 c-3 -3 -9 2 -12 12 -6 14 -5 15 5 6 7 -7 10 -15 7 -18z m-3858 -11
c0 -8 -19 -13 -24 -6 -3 5 1 9 9 9 8 0 15 -2 15 -3z m7620 -24 c0 -5 -2 -10
-4 -10 -3 0 -8 5 -11 10 -3 6 -1 10 4 10 6 0 11 -4 11 -10z m-7623 -15 c0 -8
-4 -12 -9 -9 -5 3 -6 10 -3 15 9 13 12 11 12 -6z m3883 1 c0 -3 -4 -8 -10 -11
-5 -3 -10 -1 -10 4 0 6 5 11 10 11 6 0 10 -2 10 -4z m3755 -46 c3 -5 1 -10 -4
-10 -6 0 -11 5 -11 10 0 6 2 10 4 10 3 0 8 -4 11 -10z m-7679 -36 c1 -9 0 -13
-4 -10 -3 4 -7 14 -8 22 -1 9 0 13 4 10 3 -4 7 -14 8 -22z m3877 11 c4 -8 3
-16 -1 -19 -4 -3 -9 4 -9 15 -2 23 3 25 10 4z m1344 -10 c0 -8 -4 -12 -9 -9
-5 3 -6 10 -3 15 9 13 12 11 12 -6z m-2062 -34 c3 -5 2 -12 -3 -15 -5 -3 -9 1
-9 9 0 17 3 19 12 6z m-3198 -16 c0 -8 -4 -12 -9 -9 -5 3 -6 10 -3 15 9 13 12
11 12 -6z m7756 -10 c-7 -21 -12 -19 -10 4 0 11 5 18 9 15 4 -3 5 -11 1 -19z
m-7759 -23 c3 -5 -1 -9 -9 -9 -8 0 -12 4 -9 9 3 4 7 8 9 8 2 0 6 -4 9 -8z
m3166 4 c0 -3 -4 -8 -10 -11 -5 -3 -10 -1 -10 4 0 6 5 11 10 11 6 0 10 -2 10
-4z m760 0 c0 -3 -4 -8 -10 -11 -5 -3 -10 -1 -10 4 0 6 5 11 10 11 6 0 10 -2
10 -4z m-3947 -61 c-3 -9 -8 -14 -10 -11 -3 3 -2 9 2 15 9 16 15 13 8 -4z
m3157 -1 c0 -8 -19 -13 -24 -6 -3 5 1 9 9 9 8 0 15 -2 15 -3z m2134 -82 c3 -5
-1 -9 -9 -9 -8 0 -12 4 -9 9 3 4 7 8 9 8 2 0 6 -4 9 -8z m692 -18 c1 -9 0 -13
-4 -10 -3 4 -7 14 -8 22 -1 9 0 13 4 10 3 -4 7 -14 8 -22z m-2076 -4 c0 -5 -2
-10 -4 -10 -3 0 -8 5 -11 10 -3 6 -1 10 4 10 6 0 11 -4 11 -10z m-3965 -40 c3
-5 1 -10 -4 -10 -6 0 -11 5 -11 10 0 6 2 10 4 10 3 0 8 -4 11 -10z m6002 -9
c0 -11 -5 -18 -9 -15 -4 3 -5 11 -1 19 7 21 12 19 10 -4z m1898 10 c3 -5 2
-12 -3 -15 -5 -3 -9 1 -9 9 0 17 3 19 12 6z m-7915 -36 c0 -7 -30 -13 -34 -7
-3 4 4 9 15 9 10 1 19 0 19 -2z m3100 -39 c0 -3 -4 -8 -10 -11 -5 -3 -10 -1
-10 4 0 6 5 11 10 11 6 0 10 -2 10 -4z m2880 -6 c0 -5 -2 -10 -4 -10 -3 0 -8
5 -11 10 -3 6 -1 10 4 10 6 0 11 -4 11 -10z m-25 -48 c-3 -3 -11 0 -18 7 -9
10 -8 11 6 5 10 -3 15 -9 12 -12z m-5990 -12 c3 -6 -1 -7 -9 -4 -18 7 -21 14
-7 14 6 0 13 -4 16 -10z m7975 -20 c0 -5 -2 -10 -4 -10 -3 0 -8 5 -11 10 -3 6
-1 10 4 10 6 0 11 -4 11 -10z m-8000 -80 c0 -5 -5 -10 -11 -10 -5 0 -7 5 -4
10 3 6 8 10 11 10 2 0 4 -4 4 -10z m5960 0 c0 -5 -5 -10 -11 -10 -5 0 -7 5 -4
10 3 6 8 10 11 10 2 0 4 -4 4 -10z m-2010 -14 c0 -2 -8 -10 -17 -17 -16 -13
-17 -12 -4 4 13 16 21 21 21 13z m4075 -6 c3 -6 -1 -7 -9 -4 -18 7 -21 14 -7
14 6 0 13 -4 16 -10z m-8071 -22 c-3 -4 -11 -5 -19 -1 -21 7 -19 12 4 10 11 0
18 -5 15 -9z m3100 4 c3 -5 -1 -9 -9 -9 -8 0 -12 4 -9 9 3 4 7 8 9 8 2 0 6 -4
9 -8z m4 -67 c-3 -3 -9 2 -12 12 -6 14 -5 15 5 6 7 -7 10 -15 7 -18z m877 -14
c-9 -8 -36 -10 -30 -2 2 4 11 8 20 8 8 0 13 -3 10 -6z m-15 -41 c0 -5 -2 -10
-4 -10 -3 0 -8 5 -11 10 -3 6 -1 10 4 10 6 0 11 -4 11 -10z m-920 -14 c0 -3
-4 -8 -10 -11 -5 -3 -10 -1 -10 4 0 6 5 11 10 11 6 0 10 -2 10 -4z m916 -31
c-1 -8 -5 -17 -8 -21 -5 -4 -4 16 1 34 3 9 9 -1 7 -13z m1964 11 c0 -3 -4 -8
-10 -11 -5 -3 -10 -1 -10 4 0 6 5 11 10 11 6 0 10 -2 10 -4z m-2895 -26 c3 -6
-1 -7 -9 -4 -18 7 -21 14 -7 14 6 0 13 -4 16 -10z m-3110 -59 c3 -5 2 -12 -3
-15 -5 -3 -9 1 -9 9 0 17 3 19 12 6z m3079 0 c3 -5 -2 -15 -12 -22 -15 -12
-16 -12 -5 2 7 9 10 19 6 22 -3 4 -4 7 0 7 3 0 8 -4 11 -9z m-3063 -48 c12
-16 12 -17 -2 -6 -9 7 -20 9 -24 5 -5 -4 -5 -1 -1 6 9 16 11 15 27 -5z m909
13 c0 -3 -4 -8 -10 -11 -5 -3 -10 -1 -10 4 0 6 5 11 10 11 6 0 10 -2 10 -4z
m894 -4 c3 -5 -1 -9 -9 -9 -8 0 -12 4 -9 9 3 4 7 8 9 8 2 0 6 -4 9 -8z m21
-41 c3 -5 2 -12 -3 -15 -5 -3 -9 1 -9 9 0 17 3 19 12 6z m-1820 -10 c3 -5 2
-12 -3 -15 -5 -3 -9 1 -9 9 0 17 3 19 12 6z m3981 -16 c-1 -8 -5 -17 -8 -21
-5 -4 -4 16 1 34 3 9 9 -1 7 -13z m-956 -11 c0 -8 -19 -13 -24 -6 -3 5 1 9 9
9 8 0 15 -2 15 -3z m2880 2 c0 -3 -4 -8 -10 -11 -5 -3 -10 -1 -10 4 0 6 5 11
10 11 6 0 10 -2 10 -4z m-5960 -42 c0 -8 -19 -13 -24 -6 -3 5 1 9 9 9 8 0 15
-2 15 -3z m915 -4 c3 -5 1 -10 -4 -10 -6 0 -11 5 -11 10 0 6 2 10 4 10 3 0 8
-4 11 -10z m2159 2 c2 -4 -5 -9 -17 -9 -17 -2 -19 0 -7 7 18 12 18 12 24 2z
m941 -10 c-3 -3 -11 0 -18 7 -9 10 -8 11 6 5 10 -3 15 -9 12 -12z m-3095 -26
c0 -3 -4 -8 -10 -11 -5 -3 -10 -1 -10 4 0 6 5 11 10 11 6 0 10 -2 10 -4z
m3114 -4 c3 -5 -1 -9 -9 -9 -8 0 -12 4 -9 9 3 4 7 8 9 8 2 0 6 -4 9 -8z m-39
-41 c3 -5 2 -12 -3 -15 -5 -3 -9 1 -9 9 0 17 3 19 12 6z m-3984 -34 c-10 -9
-11 -8 -5 6 3 10 9 15 12 12 3 -3 0 -11 -7 -18z m1903 -5 c2 -4 -5 -9 -17 -9
-17 -2 -19 0 -7 7 18 12 18 12 24 2z m-1921 -27 c4 -8 3 -16 -1 -19 -4 -3 -9
4 -9 15 -2 23 3 25 10 4z m5902 -4 c3 -5 2 -12 -3 -15 -5 -3 -9 1 -9 9 0 17 3
19 12 6z m-2895 -11 c0 -5 -2 -10 -4 -10 -3 0 -8 5 -11 10 -3 6 -1 10 4 10 6
0 11 -4 11 -10z m-1087 -55 c-7 -21 -12 -19 -10 4 0 11 5 18 9 15 4 -3 5 -11
1 -19z m1082 16 c3 -5 2 -12 -3 -15 -5 -3 -9 1 -9 9 0 17 3 19 12 6z m985 5
c0 -2 -7 -7 -16 -10 -8 -3 -12 -2 -9 4 6 10 25 14 25 6z m-1020 -80 c0 -3 -4
-8 -10 -11 -5 -3 -10 -1 -10 4 0 6 5 11 10 11 6 0 10 -2 10 -4z m-1530 -22 c0
-8 -19 -13 -24 -6 -3 5 1 9 9 9 8 0 15 -2 15 -3z m-1470 -20 c0 -8 -19 -13
-24 -6 -3 5 1 9 9 9 8 0 15 -2 15 -3z m2955 -4 c3 -5 1 -10 -4 -10 -6 0 -11 5
-11 10 0 6 2 10 4 10 3 0 8 -4 11 -10z m1045 0 c0 -5 -2 -10 -4 -10 -3 0 -8 5
-11 10 -3 6 -1 10 4 10 6 0 11 -4 11 -10z m1875 0 c3 -5 1 -10 -4 -10 -6 0
-11 5 -11 10 0 6 2 10 4 10 3 0 8 -4 11 -10z m-3937 -25 c-3 -3 -9 2 -12 12
-6 14 -5 15 5 6 7 -7 10 -15 7 -18z m-1941 -10 c0 -8 -4 -12 -9 -9 -5 3 -6 10
-3 15 9 13 12 11 12 -6z m8238 -14 c3 -5 2 -12 -3 -15 -5 -3 -9 1 -9 9 0 17 3
19 12 6z m-6839 -27 c1 -9 0 -13 -4 -10 -3 4 -7 14 -8 22 -1 9 0 13 4 10 3 -4
7 -14 8 -22z m557 11 c4 -8 3 -16 -1 -19 -4 -3 -9 4 -9 15 -2 23 3 25 10 4z
m5964 8 c-3 -5 -8 -48 -11 -98 -9 -115 -28 -284 -52 -445 -33 -221 -111 -542
-191 -785 -191 -582 -480 -1107 -901 -1633 -135 -169 -255 -292 -365 -374 -91
-67 -236 -140 -315 -158 -50 -12 -55 -11 -78 11 -13 12 -22 24 -20 27 3 2 -2
21 -9 42 -7 21 -19 91 -26 156 -7 66 -17 122 -23 126 -7 5 -7 8 2 8 9 0 11 7
7 20 -9 28 -9 281 0 375 4 44 9 98 11 120 2 22 7 56 12 75 4 19 7 47 7 62 -1
15 1 25 4 23 2 -3 18 51 36 118 17 68 35 129 39 136 4 6 2 19 -5 27 -9 12 -9
13 2 9 9 -3 18 5 26 25 8 23 8 30 0 30 -7 0 -4 5 6 11 13 8 17 18 13 34 -3 13
-2 27 4 30 6 3 8 -2 5 -12 -3 -10 3 0 14 22 45 89 60 128 54 138 -3 6 -1 7 4
4 9 -6 21 17 21 40 0 3 5 9 10 12 17 11 43 71 36 84 -4 7 -4 9 1 5 10 -10 36
26 32 44 -2 7 -2 9 1 5 2 -4 22 22 43 58 22 36 37 70 34 75 -4 6 -2 9 3 8 6
-2 29 25 51 60 23 35 36 60 29 56 -7 -4 0 5 15 19 16 15 25 32 21 39 -4 6 -3
8 3 5 15 -9 26 23 13 38 -7 8 -5 12 5 12 8 0 11 -5 8 -11 -9 -16 10 4 35 38
12 15 19 33 15 39 -3 6 -1 7 5 3 6 -4 19 6 29 21 10 15 22 31 27 34 5 4 5 12
1 19 -5 9 -4 11 3 6 7 -4 22 10 38 34 15 22 31 40 36 40 5 0 6 5 3 10 -3 6 -2
10 3 10 5 0 40 35 76 78 37 42 81 91 98 109 16 17 27 36 24 41 -3 6 -1 14 5
18 8 4 9 3 5 -4 -4 -7 -3 -12 2 -12 11 0 62 57 62 70 0 5 4 10 8 10 17 0 122
112 116 122 -4 7 -2 8 5 4 16 -10 43 13 37 31 -3 8 -1 11 5 8 5 -4 31 13 57
38 78 74 186 167 194 167 4 0 8 10 8 23 0 18 2 19 10 7 9 -14 14 -7 11 13 -1
5 3 6 8 3 4 -3 28 11 52 32 24 21 61 50 82 65 20 16 37 36 37 45 0 12 3 13 8
5 6 -9 17 -4 41 17 18 17 35 30 39 30 4 0 18 10 32 23 14 12 48 38 77 57 28
19 49 39 45 44 -3 5 -1 6 5 3 5 -3 22 3 39 14 30 19 49 25 41 12z m-3922 -23
c3 -5 1 -10 -4 -10 -6 0 -11 5 -11 10 0 6 2 10 4 10 3 0 8 -4 11 -10z m-3998
-35 c0 -8 -4 -12 -9 -9 -5 3 -6 10 -3 15 9 13 12 11 12 -6z m2916 -20 c-7 -21
-12 -19 -10 4 0 11 5 18 9 15 4 -3 5 -11 1 -19z m1043 -21 c1 -9 0 -13 -4 -10
-3 4 -7 14 -8 22 -1 9 0 13 4 10 3 -4 7 -14 8 -22z m-3980 -6 c3 -4 -1 -5 -10
-4 -8 1 -18 5 -22 8 -3 4 1 5 10 4 8 -1 18 -5 22 -8z m1384 2 c0 -5 -5 -10
-11 -10 -5 0 -7 5 -4 10 3 6 8 10 11 10 2 0 4 -4 4 -10z m620 -35 c0 -7 -30
-13 -34 -7 -3 4 4 9 15 9 10 1 19 0 19 -2z m1976 -21 c1 -9 0 -13 -4 -10 -3 4
-7 14 -8 22 -1 9 0 13 4 10 3 -4 7 -14 8 -22z m-3982 -2 c3 -5 -1 -9 -9 -9 -8
0 -12 4 -9 9 3 4 7 8 9 8 2 0 6 -4 9 -8z m2902 -7 c-1 -8 -5 -17 -8 -21 -5 -4
-4 16 1 34 3 9 9 -1 7 -13z m-2921 -54 c-9 -8 -36 -10 -30 -2 2 4 11 8 20 8 8
0 13 -3 10 -6z m1325 -1 c0 -5 -5 -10 -11 -10 -5 0 -7 5 -4 10 3 6 8 10 11 10
2 0 4 -4 4 -10z m676 -2 c4 -7 4 -10 -1 -6 -4 4 -15 2 -24 -5 -14 -11 -14 -10
-2 6 16 20 18 21 27 5z m6281 -27 c0 -11 -5 -18 -9 -15 -4 3 -5 11 -1 19 7 21
12 19 10 -4z m-8280 -6 c0 -8 -4 -12 -9 -9 -5 3 -6 10 -3 15 9 13 12 11 12 -6z
m4003 -5 c0 -5 -5 -10 -11 -10 -5 0 -7 5 -4 10 3 6 8 10 11 10 2 0 4 -4 4 -10z
m1811 -73 c-10 -9 -11 -8 -5 6 3 10 9 15 12 12 3 -3 0 -11 -7 -18z m-3821 -21
c0 -2 -8 -10 -17 -17 -16 -13 -17 -12 -4 4 13 16 21 21 21 13z m3830 -26 c0
-5 -5 -10 -11 -10 -5 0 -7 5 -4 10 3 6 8 10 11 10 2 0 4 -4 4 -10z m2435 1 c3
-5 2 -12 -3 -15 -5 -3 -9 1 -9 9 0 17 3 19 12 6z m-8274 -18 c13 -16 12 -17
-3 -4 -17 13 -22 21 -14 21 2 0 10 -8 17 -17z m2839 -28 c0 -2 -9 -3 -19 -2
-11 0 -18 5 -15 9 4 6 34 0 34 -7z m1140 11 c0 -3 -4 -8 -10 -11 -5 -3 -10 -1
-10 4 0 6 5 11 10 11 6 0 10 -2 10 -4z m-3965 -46 c3 -5 1 -10 -4 -10 -6 0
-11 5 -11 10 0 6 2 10 4 10 3 0 8 -4 11 -10z m2000 1 c-9 -8 -36 -10 -30 -2 2
4 11 8 20 8 8 0 13 -3 10 -6z m800 0 c-9 -8 -36 -10 -30 -2 2 4 11 8 20 8 8 0
13 -3 10 -6z m-1611 -19 c3 -5 -1 -9 -9 -9 -8 0 -12 4 -9 9 3 4 7 8 9 8 2 0 6
-4 9 -8z m813 -17 c0 -8 -4 -12 -9 -9 -5 3 -6 10 -3 15 9 13 12 11 12 -6z
m1967 -3 c3 -5 -1 -9 -9 -9 -8 0 -12 4 -9 9 3 4 7 8 9 8 2 0 6 -4 9 -8z m4286
2 c0 -8 -19 -13 -24 -6 -3 5 1 9 9 9 8 0 15 -2 15 -3z m-7070 -20 c0 -8 -19
-13 -24 -6 -3 5 1 9 9 9 8 0 15 -2 15 -3z m-1185 -24 c3 -5 1 -10 -4 -10 -6 0
-11 5 -11 10 0 6 2 10 4 10 3 0 8 -4 11 -10z m1998 -15 c-7 -21 -12 -19 -10 4
0 11 5 18 9 15 4 -3 5 -11 1 -19z m767 21 c0 -3 -4 -8 -10 -11 -5 -3 -10 -1
-10 4 0 6 5 11 10 11 6 0 10 -2 10 -4z m5480 0 c0 -3 -4 -8 -10 -11 -5 -3 -10
-1 -10 4 0 6 5 11 10 11 6 0 10 -2 10 -4z m-7086 -24 c3 -5 -1 -9 -9 -9 -8 0
-12 4 -9 9 3 4 7 8 9 8 2 0 6 -4 9 -8z m2786 -27 c0 -2 -9 -3 -19 -2 -11 0
-18 5 -15 9 4 6 34 0 34 -7z m-3965 -4 c3 -5 2 -12 -3 -15 -5 -3 -9 1 -9 9 0
17 3 19 12 6z m2005 -11 c0 -5 -5 -10 -11 -10 -5 0 -7 5 -4 10 3 6 8 10 11 10
2 0 4 -4 4 -10z m-865 -20 c3 -5 1 -10 -4 -10 -6 0 -11 5 -11 10 0 6 2 10 4
10 3 0 8 -4 11 -10z m4645 0 c0 -5 -5 -10 -11 -10 -5 0 -7 5 -4 10 3 6 8 10
11 10 2 0 4 -4 4 -10z m-3800 -34 c0 -3 -4 -8 -10 -11 -5 -3 -10 -1 -10 4 0 6
5 11 10 11 6 0 10 -2 10 -4z m-1965 -46 c3 -5 1 -10 -4 -10 -6 0 -11 5 -11 10
0 6 2 10 4 10 3 0 8 -4 11 -10z m1999 2 c3 -5 -1 -9 -9 -9 -8 0 -12 4 -9 9 3
4 7 8 9 8 2 0 6 -4 9 -8z m1926 -2 c0 -5 -5 -10 -11 -10 -5 0 -7 5 -4 10 3 6
8 10 11 10 2 0 4 -4 4 -10z m-2885 -29 c3 -5 2 -12 -3 -15 -5 -3 -9 1 -9 9 0
17 3 19 12 6z m-1039 -53 c3 -4 -1 -5 -10 -4 -8 1 -18 5 -22 8 -3 4 1 5 10 4
8 -1 18 -5 22 -8z m1999 2 c3 -5 1 -10 -4 -10 -6 0 -11 5 -11 10 0 6 2 10 4
10 3 0 8 -4 11 -10z m6201 -2 c3 -4 -1 -5 -10 -4 -8 1 -18 5 -22 8 -3 4 1 5
10 4 8 -1 18 -5 22 -8z m-2455 -15 c13 -16 12 -17 -3 -4 -10 7 -18 15 -18 17
0 8 8 3 21 -13z m-4721 -17 c0 -3 -4 -8 -10 -11 -5 -3 -10 -1 -10 4 0 6 5 11
10 11 6 0 10 -2 10 -4z m2880 -26 c0 -5 -2 -10 -4 -10 -3 0 -8 5 -11 10 -3 6
-1 10 4 10 6 0 11 -4 11 -10z m-3905 -20 c3 -5 1 -10 -4 -10 -6 0 -11 5 -11
10 0 6 2 10 4 10 3 0 8 -4 11 -10z m8165 -40 c0 -5 -2 -10 -4 -10 -3 0 -8 5
-11 10 -3 6 -1 10 4 10 6 0 11 -4 11 -10z m-5585 -20 c3 -5 1 -10 -4 -10 -6 0
-11 5 -11 10 0 6 2 10 4 10 3 0 8 -4 11 -10z m4262 -9 c0 -11 -5 -18 -9 -15
-4 3 -5 11 -1 19 7 21 12 19 10 -4z m-2962 -11 c3 -5 1 -10 -4 -10 -6 0 -11 5
-11 10 0 6 2 10 4 10 3 0 8 -4 11 -10z m1845 0 c0 -5 -2 -10 -4 -10 -3 0 -8 5
-11 10 -3 6 -1 10 4 10 6 0 11 -4 11 -10z m2440 0 c0 -5 -5 -10 -11 -10 -5 0
-7 5 -4 10 3 6 8 10 11 10 2 0 4 -4 4 -10z m-7190 -36 c0 -8 -19 -13 -24 -6
-3 5 1 9 9 9 8 0 15 -2 15 -3z m1070 2 c0 -3 -4 -8 -10 -11 -5 -3 -10 -1 -10
4 0 6 5 11 10 11 6 0 10 -2 10 -4z m1794 -4 c3 -5 -1 -9 -9 -9 -8 0 -12 4 -9
9 3 4 7 8 9 8 2 0 6 -4 9 -8z m1861 -30 c-3 -3 -11 0 -18 7 -9 10 -8 11 6 5
10 -3 15 -9 12 -12z m-620 -51 c-9 -8 -36 -10 -30 -2 2 4 11 8 20 8 8 0 13 -3
10 -6z m-4160 -80 c3 -5 2 -12 -3 -15 -5 -3 -9 1 -9 9 0 17 3 19 12 6z m4762
-13 c2 -17 0 -19 -7 -8 -5 8 -6 18 -4 22 8 12 10 10 11 -14z m-626 -15 c13
-16 12 -17 -3 -4 -10 7 -18 15 -18 17 0 8 8 3 21 -13z m-2656 -12 c3 -5 2 -12
-3 -15 -5 -3 -9 1 -9 9 0 17 3 19 12 6z m-2384 -34 c-10 -9 -11 -8 -5 6 3 10
9 15 12 12 3 -3 0 -11 -7 -18z m8079 -43 c0 -8 -19 -13 -24 -6 -3 5 1 9 9 9 8
0 15 -2 15 -3z m-4274 -46 c3 -4 -1 -5 -10 -4 -8 1 -18 5 -22 8 -3 4 1 5 10 4
8 -1 18 -5 22 -8z m-21 -27 c3 -5 2 -12 -3 -15 -5 -3 -9 1 -9 9 0 17 3 19 12
6z m-3739 -13 c3 -4 -1 -5 -10 -4 -8 1 -18 5 -22 8 -3 4 1 5 10 4 8 -1 18 -5
22 -8z m779 2 c3 -5 1 -10 -4 -10 -6 0 -11 5 -11 10 0 6 2 10 4 10 3 0 8 -4
11 -10z m4809 2 c3 -5 -1 -9 -9 -9 -8 0 -12 4 -9 9 3 4 7 8 9 8 2 0 6 -4 9 -8z
m836 -38 c0 -8 -19 -13 -24 -6 -3 5 1 9 9 9 8 0 15 -2 15 -3z m-2680 -44 c0
-5 -2 -10 -4 -10 -3 0 -8 5 -11 10 -3 6 -1 10 4 10 6 0 11 -4 11 -10z m1835 0
c3 -5 1 -10 -4 -10 -6 0 -11 5 -11 10 0 6 2 10 4 10 3 0 8 -4 11 -10z m-5555
-80 c0 -5 -2 -10 -4 -10 -3 0 -8 5 -11 10 -3 6 -1 10 4 10 6 0 11 -4 11 -10z
m7920 6 c0 -3 -4 -8 -10 -11 -5 -3 -10 -1 -10 4 0 6 5 11 10 11 6 0 10 -2 10
-4z m-4250 -60 c0 -2 -8 -10 -17 -17 -16 -13 -17 -12 -4 4 13 16 21 21 21 13z
m35 -46 c-3 -5 -12 -10 -18 -10 -7 0 -6 4 3 10 19 12 23 12 15 0z m1809 -98
c3 -5 -1 -9 -9 -9 -8 0 -12 4 -9 9 3 4 7 8 9 8 2 0 6 -4 9 -8z m2323 -7 c0 -8
-4 -12 -9 -9 -5 3 -6 10 -3 15 9 13 12 11 12 -6z m-7777 -15 c0 -5 -5 -10 -11
-10 -5 0 -7 5 -4 10 3 6 8 10 11 10 2 0 4 -4 4 -10z m4700 -60 c0 -5 -2 -10
-4 -10 -3 0 -8 5 -11 10 -3 6 -1 10 4 10 6 0 11 -4 11 -10z m760 0 c0 -5 -5
-10 -11 -10 -5 0 -7 5 -4 10 3 6 8 10 11 10 2 0 4 -4 4 -10z m636 -16 c1 -9 0
-13 -4 -10 -3 4 -7 14 -8 22 -1 9 0 13 4 10 3 -4 7 -14 8 -22z m-2496 -4 c0
-5 -2 -10 -4 -10 -3 0 -8 5 -11 10 -3 6 -1 10 4 10 6 0 11 -4 11 -10z m4124
-38 c3 -5 -1 -9 -9 -9 -8 0 -12 4 -9 9 3 4 7 8 9 8 2 0 6 -4 9 -8z m-7709 -22
c3 -5 1 -10 -4 -10 -6 0 -11 5 -11 10 0 6 2 10 4 10 3 0 8 -4 11 -10z m3560 1
c3 -5 2 -12 -3 -15 -5 -3 -9 1 -9 9 0 17 3 19 12 6z m1085 5 c0 -3 -4 -8 -10
-11 -5 -3 -10 -1 -10 4 0 6 5 11 10 11 6 0 10 -2 10 -4z m3037 -35 c0 -11 -5
-18 -9 -15 -4 3 -5 11 -1 19 7 21 12 19 10 -4z m-4117 -11 c0 -5 -2 -10 -4
-10 -3 0 -8 5 -11 10 -3 6 -1 10 4 10 6 0 11 -4 11 -10z m2450 -36 c0 -8 -19
-13 -24 -6 -3 5 1 9 9 9 8 0 15 -2 15 -3z m-2450 -44 c0 -5 -2 -10 -4 -10 -3
0 -8 5 -11 10 -3 6 -1 10 4 10 6 0 11 -4 11 -10z m1040 6 c0 -3 -4 -8 -10 -11
-5 -3 -10 -1 -10 4 0 6 5 11 10 11 6 0 10 -2 10 -4z m1396 -8 c4 -7 4 -10 -1
-6 -4 4 -15 2 -24 -5 -14 -11 -14 -10 -2 6 16 20 18 21 27 5z m-2439 -43 c0
-8 -4 -12 -9 -9 -5 3 -6 10 -3 15 9 13 12 11 12 -6z m1018 6 c-9 -8 -36 -10
-30 -2 2 4 11 8 20 8 8 0 13 -3 10 -6z m-1015 -41 c0 -5 -5 -10 -11 -10 -5 0
-7 5 -4 10 3 6 8 10 11 10 2 0 4 -4 4 -10z m975 0 c3 -5 1 -10 -4 -10 -6 0
-11 5 -11 10 0 6 2 10 4 10 3 0 8 -4 11 -10z m3080 0 c3 -5 1 -10 -4 -10 -6 0
-11 5 -11 10 0 6 2 10 4 10 3 0 8 -4 11 -10z m-1701 -38 c3 -5 -1 -9 -9 -9 -8
0 -12 4 -9 9 3 4 7 8 9 8 2 0 6 -4 9 -8z m-2399 -42 c3 -5 1 -10 -4 -10 -6 0
-11 5 -11 10 0 6 2 10 4 10 3 0 8 -4 11 -10z m1001 -5 c-1 -8 -5 -17 -8 -21
-5 -4 -4 16 1 34 3 9 9 -1 7 -13z m-4399 -24 c0 -11 -5 -18 -9 -15 -4 3 -5 11
-1 19 7 21 12 19 10 -4z m4359 -47 c1 -9 0 -13 -4 -10 -3 4 -7 14 -8 22 -1 9
0 13 4 10 3 -4 7 -14 8 -22z m920 0 c1 -9 0 -13 -4 -10 -3 4 -7 14 -8 22 -1 9
0 13 4 10 3 -4 7 -14 8 -22z m499 17 c3 -5 2 -12 -3 -15 -5 -3 -9 1 -9 9 0 17
3 19 12 6z m1645 -1 c0 -5 -5 -10 -11 -10 -5 0 -7 5 -4 10 3 6 8 10 11 10 2 0
4 -4 4 -10z m-7424 -25 c-1 -8 -5 -17 -8 -21 -5 -4 -4 16 1 34 3 9 9 -1 7 -13z
m40 -20 c-1 -8 -5 -17 -8 -21 -5 -4 -4 16 1 34 3 9 9 -1 7 -13z m5718 -17 c-3
-4 -11 -5 -19 -1 -21 7 -19 12 4 10 11 0 18 -5 15 -9z m-1438 -74 c1 -9 0 -13
-4 -10 -3 4 -7 14 -8 22 -1 9 0 13 4 10 3 -4 7 -14 8 -22z m-4243 -29 c4 -8 3
-16 -1 -19 -4 -3 -9 4 -9 15 -2 23 3 25 10 4z m5187 11 c0 -2 -7 -7 -16 -10
-8 -3 -12 -2 -9 4 6 10 25 14 25 6z m-1864 -42 c1 -9 0 -13 -4 -10 -3 4 -7 14
-8 22 -1 9 0 13 4 10 3 -4 7 -14 8 -22z m-3296 -44 c0 -5 -5 -10 -11 -10 -5 0
-7 5 -4 10 3 6 8 10 11 10 2 0 4 -4 4 -10z m45 -40 c-3 -5 -12 -10 -18 -10 -7
0 -6 4 3 10 19 12 23 12 15 0z m3235 -55 c0 -7 -30 -13 -34 -7 -3 4 4 9 15 9
10 1 19 0 19 -2z m1854 -3 c3 -5 -1 -9 -9 -9 -8 0 -12 4 -9 9 3 4 7 8 9 8 2 0
6 -4 9 -8z m-1879 -31 c3 -5 2 -12 -3 -15 -5 -3 -9 1 -9 9 0 17 3 19 12 6z
m2325 -5 c0 -3 -4 -8 -10 -11 -5 -3 -10 -1 -10 4 0 6 5 11 10 11 6 0 10 -2 10
-4z m-5487 -31 c4 -8 3 -16 -1 -19 -4 -3 -9 4 -9 15 -2 23 3 25 10 4z m4007
-15 c0 -5 -2 -10 -4 -10 -3 0 -8 5 -11 10 -3 6 -1 10 4 10 6 0 11 -4 11 -10z
m1036 -16 c1 -9 0 -13 -4 -10 -3 4 -7 14 -8 22 -1 9 0 13 4 10 3 -4 7 -14 8
-22z m-5000 -66 c3 -4 -1 -5 -10 -4 -8 1 -18 5 -22 8 -3 4 1 5 10 4 8 -1 18
-5 22 -8z m3120 0 c3 -4 -1 -5 -10 -4 -8 1 -18 5 -22 8 -3 4 1 5 10 4 8 -1 18
-5 22 -8z m2320 -14 c1 -9 0 -13 -4 -10 -3 4 -7 14 -8 22 -1 9 0 13 4 10 3 -4
7 -14 8 -22z m-1556 -24 c0 -5 -2 -10 -4 -10 -3 0 -8 5 -11 10 -3 6 -1 10 4
10 6 0 11 -4 11 -10z m1117 -35 c0 -8 -4 -12 -9 -9 -5 3 -6 10 -3 15 9 13 12
11 12 -6z m438 -4 c-9 -8 -36 -10 -30 -2 2 4 11 8 20 8 8 0 13 -3 10 -6z
m-5360 -30 c3 -5 2 -12 -3 -15 -5 -3 -9 1 -9 9 0 17 3 19 12 6z m5359 -9 c2
-4 -5 -9 -17 -9 -17 -2 -19 0 -7 7 18 12 18 12 24 2z m-1598 -27 c1 -8 -1 -17
-5 -19 -4 -3 -7 6 -7 19 0 25 8 25 12 0z m1594 -31 c0 -8 -19 -13 -24 -6 -3 5
1 9 9 9 8 0 15 -2 15 -3z m-1615 -23 c-9 -8 -36 -10 -30 -2 2 4 11 8 20 8 8 0
13 -3 10 -6z m-734 -24 c-6 -8 -7 -18 -3 -22 4 -5 1 -5 -6 -1 -10 6 -10 11 -1
22 6 8 14 14 16 14 3 0 0 -6 -6 -13z m-2966 -16 c3 -5 2 -12 -3 -15 -5 -3 -9
1 -9 9 0 17 3 19 12 6z m4885 -1 c0 -5 -2 -10 -4 -10 -3 0 -8 5 -11 10 -3 6
-1 10 4 10 6 0 11 -4 11 -10z m-1245 -40 c3 -5 1 -10 -4 -10 -6 0 -11 5 -11
10 0 6 2 10 4 10 3 0 8 -4 11 -10z m1242 3 c-4 -3 -1 -13 6 -22 11 -14 10 -14
-5 -2 -16 12 -16 31 -1 31 4 0 3 -3 0 -7z m-4800 -38 c0 -8 -4 -12 -9 -9 -5 3
-6 10 -3 15 9 13 12 11 12 -6z m2877 -3 c3 -5 -1 -9 -9 -9 -8 0 -12 4 -9 9 3
4 7 8 9 8 2 0 6 -4 9 -8z m2360 -4 c-3 -4 -11 -5 -19 -1 -21 7 -19 12 4 10 11
0 18 -5 15 -9z m-5234 -38 c0 -5 -5 -10 -11 -10 -5 0 -7 5 -4 10 3 6 8 10 11
10 2 0 4 -4 4 -10z m3535 1 c-9 -8 -36 -10 -30 -2 2 4 11 8 20 8 8 0 13 -3 10
-6z m1275 3 c0 -8 -19 -13 -24 -6 -3 5 1 9 9 9 8 0 15 -2 15 -3z m426 -6 c3
-4 -1 -5 -10 -4 -8 1 -18 5 -22 8 -3 4 1 5 10 4 8 -1 18 -5 22 -8z m-2336 -20
c0 -4 -4 -8 -9 -8 -6 0 -12 4 -15 8 -3 5 1 9 9 9 8 0 15 -4 15 -9z m1896 -20
c4 -7 4 -10 -1 -6 -4 4 -15 2 -24 -5 -14 -11 -14 -10 -2 6 16 20 18 21 27 5z
m-3 -93 c-7 -21 -12 -19 -10 4 0 11 5 18 9 15 4 -3 5 -11 1 -19z m442 16 c3
-5 2 -12 -3 -15 -5 -3 -9 1 -9 9 0 17 3 19 12 6z m-5115 -41 c0 -5 -5 -10 -11
-10 -5 0 -7 5 -4 10 3 6 8 10 11 10 2 0 4 -4 4 -10z m5124 2 c3 -5 -1 -9 -9
-9 -8 0 -12 4 -9 9 3 4 7 8 9 8 2 0 6 -4 9 -8z m-1804 -22 c0 -5 -5 -10 -11
-10 -5 0 -7 5 -4 10 3 6 8 10 11 10 2 0 4 -4 4 -10z m1320 -56 c0 -8 -19 -13
-24 -6 -3 5 1 9 9 9 8 0 15 -2 15 -3z m-1400 -38 c0 -3 -4 -8 -10 -11 -5 -3
-10 -1 -10 4 0 6 5 11 10 11 6 0 10 -2 10 -4z m1915 -75 c3 -5 2 -12 -3 -15
-5 -3 -9 1 -9 9 0 17 3 19 12 6z m858 -46 c-3 -9 -8 -14 -10 -11 -3 3 -2 9 2
15 9 16 15 13 8 -4z m-853 -5 c0 -5 -5 -10 -11 -10 -5 0 -7 5 -4 10 3 6 8 10
11 10 2 0 4 -4 4 -10z m-4770 -196 c0 -8 -19 -13 -24 -6 -3 5 1 9 9 9 8 0 15
-2 15 -3z m4790 -168 c25 -2 92 -7 150 -10 133 -8 229 -14 305 -21 33 -2 94
-7 135 -10 41 -3 89 -8 105 -10 17 -2 62 -7 100 -10 39 -3 81 -8 95 -10 14 -3
51 -7 83 -10 32 -4 66 -8 75 -10 9 -1 44 -6 77 -9 33 -4 69 -9 80 -10 11 -2
49 -8 85 -12 36 -4 68 -9 73 -10 4 -1 14 -2 23 -3 16 -1 -61 -70 -211 -187
-112 -88 -111 -87 -112 -62 -1 12 -6 24 -11 27 -5 3 -11 14 -15 24 -8 20 -92
61 -107 52 -6 -3 -10 -2 -10 3 0 9 -9 11 -65 14 -19 1 -35 5 -35 9 0 3 -30 10
-67 14 -38 4 -75 8 -83 10 -8 1 -37 5 -65 9 -27 3 -59 8 -71 10 -11 2 -47 7
-80 10 -32 4 -72 9 -89 11 -16 3 -55 7 -86 10 -31 3 -72 7 -90 9 -33 5 -121
13 -239 21 -30 3 -83 7 -118 10 -85 8 -308 20 -537 31 -137 6 -701 6 -795 0
-160 -11 -249 -17 -280 -21 -19 -2 -60 -7 -90 -10 -52 -6 -79 -9 -175 -21 -81
-10 -201 -36 -232 -51 -63 -29 -64 -129 -3 -171 33 -23 41 -24 145 -19 61 3
125 8 144 11 19 3 64 8 100 11 36 3 80 7 98 9 62 8 642 20 968 20 295 0 629
-9 725 -19 19 -2 76 -6 125 -10 50 -3 108 -8 130 -10 22 -2 69 -7 105 -10 36
-3 86 -8 113 -10 26 -3 70 -7 97 -10 276 -28 284 -29 340 -45 19 -5 62 -10 95
-10 l60 0 -90 -59 c-314 -203 -663 -372 -1014 -490 -282 -95 -658 -180 -916
-206 -33 -3 -71 -8 -85 -10 -125 -22 -692 -22 -807 -1 -10 2 -45 7 -78 10
-117 12 -212 27 -333 52 -41 8 -87 17 -103 19 -15 2 -33 6 -38 9 -5 4 -22 8
-38 11 -15 2 -48 9 -73 15 -25 7 -49 13 -55 14 -28 7 -102 29 -120 36 -46 20
-68 23 -61 9 4 -8 1 -7 -6 3 -8 9 -25 18 -38 20 -14 1 -27 6 -30 9 -3 4 -16 9
-30 10 -14 2 -28 7 -31 11 -3 5 -17 9 -32 10 -15 1 -27 5 -27 9 0 7 -82 35
-92 31 -5 -1 -8 2 -8 8 0 5 -6 10 -13 10 -7 0 -31 9 -53 19 -21 11 -42 17 -46
14 -5 -2 -8 0 -8 5 0 6 -7 13 -16 16 -10 4 -13 2 -8 -6 4 -7 -7 -2 -25 11 -18
13 -43 24 -56 25 -13 0 -21 4 -19 7 3 6 -91 51 -102 49 -4 -1 -10 3 -13 8 -3
5 -24 18 -46 29 -63 30 -197 104 -227 124 -14 11 -30 19 -36 19 -5 0 -15 7
-22 15 -7 9 -15 13 -17 11 -3 -3 -15 4 -26 15 -12 11 -27 17 -34 15 -7 -3 -12
-1 -10 3 1 5 -2 10 -8 11 -5 1 -14 8 -18 16 -4 8 -12 14 -18 14 -5 0 -19 9
-31 20 -24 22 -44 27 -32 8 4 -7 3 -8 -5 -4 -6 4 -9 12 -6 17 4 5 -5 14 -19
21 -14 6 -26 15 -26 20 0 5 -4 7 -9 4 -5 -3 -12 1 -15 10 -4 10 -12 14 -23 10
-10 -4 -14 -4 -10 0 4 4 -1 17 -10 28 -10 12 -14 18 -10 14 5 -3 24 -2 44 4
19 5 43 11 52 13 9 2 39 9 66 15 63 15 201 44 305 65 8 2 15 4 15 5 0 1 16 3
35 6 19 2 46 7 60 11 14 3 31 5 38 4 6 -1 12 2 12 6 0 4 12 8 28 9 15 0 43 4
62 8 31 6 112 20 172 30 13 2 42 7 65 11 24 4 44 5 46 3 2 -1 11 3 20 11 11 8
17 9 17 2 0 -7 8 -8 23 -2 12 5 45 11 72 15 28 3 61 8 75 10 25 5 116 17 136
19 5 0 37 -13 70 -29 102 -50 267 -42 350 18 29 20 43 37 39 46 -4 12 -3 13
10 2 8 -7 15 -8 15 -2 0 17 74 35 148 36 12 0 22 2 22 6 0 3 21 5 48 5 26 0
90 4 142 9 52 4 109 9 125 11 17 1 84 6 150 10 66 4 136 8 155 10 19 2 114 7
210 10 96 4 177 9 179 11 6 5 1091 -4 1151 -10z m1473 -160 c4 -10 1 -13 -8
-9 -8 3 -12 9 -9 14 7 12 11 11 17 -5z m-33 -10 c0 -2 -8 -10 -17 -17 -16 -13
-17 -12 -4 4 13 16 21 21 21 13z m-48 -58 c-7 -7 -12 -8 -12 -2 0 14 12 26 19
19 2 -3 -1 -11 -7 -17z m1105 -53 c0 -8 -4 -12 -9 -9 -5 3 -6 10 -3 15 9 13
12 11 12 -6z m-1157 -29 c0 -3 -4 -8 -10 -11 -5 -3 -10 -1 -10 4 0 6 5 11 10
11 6 0 10 -2 10 -4z m-445 -325 c3 -5 2 -12 -3 -15 -5 -3 -9 1 -9 9 0 17 3 19
12 6z"/>
<path d="M10340 9715 c0 -2 15 -35 34 -72 29 -57 95 -208 126 -288 4 -11 12
-31 18 -45 5 -14 16 -40 22 -58 7 -18 14 -31 17 -29 7 7 -96 271 -157 402 -11
22 -24 52 -29 68 -6 15 -15 27 -21 27 -5 0 -10 -2 -10 -5z"/>
<path d="M10569 9165 c9 -25 19 -45 22 -45 4 0 -1 20 -10 45 -9 25 -19 45 -22
45 -4 0 1 -20 10 -45z"/>
<path d="M10692 8740 c0 -8 4 -26 8 -40 6 -20 8 -21 8 -5 0 11 -3 29 -8 40 -5
12 -8 14 -8 5z"/>
<path d="M10711 8654 c0 -11 3 -14 6 -6 3 7 2 16 -1 19 -3 4 -6 -2 -5 -13z"/>
<path d="M10721 8604 c0 -11 3 -14 6 -6 3 7 2 16 -1 19 -3 4 -6 -2 -5 -13z"/>
<path d="M10730 8564 c0 -10 5 -26 10 -34 8 -11 9 -7 4 15 -8 37 -14 45 -14
19z"/>
<path d="M10660 8480 c0 -11 4 -20 9 -20 5 0 7 9 4 20 -3 11 -7 20 -9 20 -2 0
-4 -9 -4 -20z"/>
<path d="M10672 8420 c0 -14 2 -19 5 -12 2 6 2 18 0 25 -3 6 -5 1 -5 -13z"/>
<path d="M10756 8407 c3 -10 9 -15 12 -12 3 3 0 11 -7 18 -10 9 -11 8 -5 -6z"/>
<path d="M10678 8360 c6 -42 19 -46 14 -4 -2 19 -7 34 -11 34 -4 0 -6 -14 -3
-30z"/>
<path d="M10692 8285 c0 -16 2 -22 5 -12 2 9 2 23 0 30 -3 6 -5 -1 -5 -18z"/>
<path d="M10702 8205 c0 -16 2 -22 5 -12 2 9 2 23 0 30 -3 6 -5 -1 -5 -18z"/>
<path d="M10711 8074 c0 -11 3 -14 6 -6 3 7 2 16 -1 19 -3 4 -6 -2 -5 -13z"/>
<path d="M10712 7330 c0 -14 2 -19 5 -12 2 6 2 18 0 25 -3 6 -5 1 -5 -13z"/>
<path d="M10790 7329 c0 -5 5 -7 10 -4 6 3 10 8 10 11 0 2 -4 4 -10 4 -5 0
-10 -5 -10 -11z"/>
<path d="M10702 7220 c0 -19 2 -27 5 -17 2 9 2 25 0 35 -3 9 -5 1 -5 -18z"/>
<path d="M10781 7174 c0 -11 3 -14 6 -6 3 7 2 16 -1 19 -3 4 -6 -2 -5 -13z"/>
<path d="M10692 7120 c0 -19 2 -27 5 -17 2 9 2 25 0 35 -3 9 -5 1 -5 -18z"/>
<path d="M10682 7050 c0 -19 2 -27 5 -17 2 9 2 25 0 35 -3 9 -5 1 -5 -18z"/>
<path d="M10672 6980 c0 -14 2 -19 5 -12 2 6 2 18 0 25 -3 6 -5 1 -5 -13z"/>
<path d="M10752 6960 c0 -14 2 -19 5 -12 2 6 2 18 0 25 -3 6 -5 1 -5 -13z"/>
<path d="M10742 6900 c0 -14 2 -19 5 -12 2 6 2 18 0 25 -3 6 -5 1 -5 -13z"/>
<path d="M10732 6845 c0 -16 2 -22 5 -12 2 9 2 23 0 30 -3 6 -5 -1 -5 -18z"/>
<path d="M10721 6794 c0 -11 3 -14 6 -6 3 7 2 16 -1 19 -3 4 -6 -2 -5 -13z"/>
<path d="M10706 6724 c-4 -20 -5 -38 -3 -40 3 -3 8 11 11 32 4 20 5 38 3 40
-3 3 -8 -11 -11 -32z"/>
<path d="M10686 6644 c-4 -14 -5 -28 -3 -31 3 -2 8 8 11 23 4 14 5 28 3 31 -3
2 -8 -8 -11 -23z"/>
<path d="M10677 6593 c-9 -14 -36 -127 -32 -131 2 -2 9 16 15 39 6 24 15 56
20 72 8 26 7 36 -3 20z"/>
</g>
</svg>
